%TF.GenerationSoftware,KiCad,Pcbnew,9.0.8*%
%TF.CreationDate,2026-04-16T15:38:58-04:00*%
%TF.ProjectId,KilnController,4b696c6e-436f-46e7-9472-6f6c6c65722e,0*%
%TF.SameCoordinates,Original*%
%TF.FileFunction,Legend,Top*%
%TF.FilePolarity,Positive*%
%FSLAX46Y46*%
G04 Gerber Fmt 4.6, Leading zero omitted, Abs format (unit mm)*
G04 Created by KiCad (PCBNEW 9.0.8) date 2026-04-16 15:38:58*
%MOMM*%
%LPD*%
G01*
G04 APERTURE LIST*
%ADD10C,0.125000*%
%ADD11C,0.150000*%
%ADD12C,0.100000*%
%ADD13C,0.120000*%
G04 APERTURE END LIST*
D10*
G36*
X213246182Y-142464375D02*
G01*
X213086320Y-142557188D01*
X212895129Y-142648720D01*
X212668548Y-142738415D01*
X212436817Y-142806519D01*
X212192731Y-142847932D01*
X211934354Y-142862002D01*
X211675638Y-142846746D01*
X211417228Y-142800724D01*
X211157473Y-142722954D01*
X210894830Y-142611673D01*
X210627899Y-142464375D01*
X210627899Y-142319661D01*
X210931546Y-142457184D01*
X211124445Y-142530809D01*
X211306053Y-142581845D01*
X211512058Y-142622278D01*
X211723872Y-142647373D01*
X211937041Y-142655739D01*
X212193654Y-142642803D01*
X212451679Y-142603732D01*
X212712337Y-142537762D01*
X212976802Y-142443643D01*
X213246182Y-142319661D01*
X213246182Y-142464375D01*
G37*
G36*
X212120711Y-141308374D02*
G01*
X212159790Y-141110170D01*
X212288971Y-141135697D01*
X212395673Y-141173538D01*
X212483405Y-141222369D01*
X212554975Y-141281751D01*
X212615132Y-141354628D01*
X212657229Y-141432939D01*
X212682595Y-141517986D01*
X212691263Y-141611601D01*
X212679168Y-141723712D01*
X212643860Y-141823452D01*
X212584906Y-141913721D01*
X212499410Y-141996284D01*
X212401100Y-142057874D01*
X212277537Y-142105068D01*
X212123268Y-142135968D01*
X211931789Y-142147226D01*
X211738703Y-142135805D01*
X211584125Y-142104543D01*
X211461193Y-142056933D01*
X211364169Y-141994940D01*
X211280291Y-141911941D01*
X211222097Y-141820447D01*
X211187054Y-141718599D01*
X211175003Y-141603419D01*
X211188273Y-141484967D01*
X211226635Y-141382581D01*
X211290286Y-141292620D01*
X211374932Y-141221633D01*
X211487825Y-141167060D01*
X211636133Y-141130687D01*
X211675212Y-141326081D01*
X211578179Y-141352003D01*
X211505442Y-141385684D01*
X211452096Y-141425854D01*
X211410703Y-141476928D01*
X211386447Y-141533175D01*
X211378213Y-141596580D01*
X211392584Y-141689365D01*
X211435245Y-141770378D01*
X211509860Y-141843143D01*
X211576509Y-141881992D01*
X211664691Y-141912634D01*
X211779677Y-141933205D01*
X211927637Y-141940840D01*
X212124380Y-141928008D01*
X212262143Y-141894848D01*
X212355795Y-141847295D01*
X212430853Y-141777073D01*
X212473637Y-141698354D01*
X212488053Y-141607571D01*
X212478165Y-141534931D01*
X212448929Y-141470383D01*
X212398660Y-141411566D01*
X212334158Y-141367092D01*
X212243964Y-141331918D01*
X212120711Y-141308374D01*
G37*
G36*
X213246182Y-140860921D02*
G01*
X213246182Y-141005757D01*
X212976854Y-140882292D01*
X212712408Y-140788549D01*
X212451742Y-140722834D01*
X212193690Y-140683910D01*
X211937041Y-140671022D01*
X211723872Y-140679388D01*
X211512058Y-140704483D01*
X211306020Y-140744766D01*
X211124445Y-140795341D01*
X210931605Y-140868423D01*
X210627899Y-141005757D01*
X210627899Y-140860921D01*
X210894830Y-140713622D01*
X211157473Y-140602342D01*
X211417228Y-140524572D01*
X211675638Y-140478550D01*
X211934354Y-140463293D01*
X212185648Y-140476735D01*
X212426010Y-140516503D01*
X212657069Y-140582240D01*
X212882416Y-140669290D01*
X213077777Y-140762403D01*
X213246182Y-140860921D01*
G37*
G36*
X212003475Y-139584263D02*
G01*
X211987843Y-139379344D01*
X212096915Y-139362241D01*
X212181071Y-139336876D01*
X212245031Y-139304972D01*
X212327058Y-139235521D01*
X212393042Y-139138886D01*
X212434619Y-139025699D01*
X212448974Y-138895621D01*
X212437282Y-138769564D01*
X212405185Y-138671203D01*
X212355062Y-138594469D01*
X212286291Y-138534926D01*
X212206136Y-138499427D01*
X212110942Y-138487124D01*
X212027240Y-138497213D01*
X211957435Y-138526081D01*
X211898820Y-138573798D01*
X211849968Y-138643562D01*
X211806855Y-138745625D01*
X211729434Y-138983060D01*
X211653186Y-139196648D01*
X211590216Y-139313764D01*
X211511852Y-139401220D01*
X211414972Y-139466782D01*
X211303482Y-139507330D01*
X211174637Y-139521371D01*
X211056634Y-139510993D01*
X210953395Y-139481144D01*
X210862151Y-139432552D01*
X210780917Y-139364323D01*
X210715596Y-139281500D01*
X210668113Y-139185166D01*
X210638386Y-139072711D01*
X210627899Y-138940683D01*
X210636377Y-138820388D01*
X210660691Y-138714360D01*
X210699829Y-138620359D01*
X210754875Y-138535387D01*
X210823187Y-138464788D01*
X210905969Y-138407257D01*
X210998197Y-138365402D01*
X211102756Y-138337983D01*
X211221898Y-138325924D01*
X211237529Y-138534996D01*
X211111669Y-138557274D01*
X211017733Y-138596960D01*
X210948590Y-138651866D01*
X210898160Y-138724186D01*
X210866158Y-138816296D01*
X210854556Y-138933845D01*
X210865027Y-139054333D01*
X210893378Y-139145999D01*
X210936866Y-139215334D01*
X210997189Y-139269316D01*
X211067006Y-139301274D01*
X211149480Y-139312299D01*
X211227058Y-139303692D01*
X211288341Y-139279715D01*
X211337058Y-139241224D01*
X211374229Y-139188101D01*
X211419180Y-139088625D01*
X211472735Y-138921632D01*
X211541953Y-138697523D01*
X211590216Y-138580059D01*
X211648760Y-138485796D01*
X211716013Y-138411014D01*
X211792327Y-138353279D01*
X211878459Y-138311609D01*
X211976880Y-138285753D01*
X212090181Y-138276709D01*
X212202486Y-138285870D01*
X212306209Y-138312766D01*
X212403056Y-138357309D01*
X212490267Y-138418065D01*
X212561335Y-138490826D01*
X212617745Y-138576639D01*
X212657443Y-138671713D01*
X212682440Y-138782076D01*
X212691263Y-138910642D01*
X212678695Y-139060928D01*
X212642944Y-139189542D01*
X212585501Y-139300416D01*
X212505882Y-139396441D01*
X212408176Y-139473984D01*
X212294063Y-139531408D01*
X212160497Y-139568729D01*
X212003475Y-139584263D01*
G37*
G36*
X212448974Y-137561078D02*
G01*
X212660000Y-137533722D01*
X212675631Y-137684054D01*
X212664313Y-137782535D01*
X212633866Y-137853558D01*
X212584394Y-137907637D01*
X212519560Y-137941608D01*
X212429108Y-137957909D01*
X212230621Y-137965544D01*
X211393845Y-137965544D01*
X211393845Y-138113066D01*
X211206266Y-138113066D01*
X211206266Y-137965544D01*
X210846741Y-137965544D01*
X210698241Y-137764654D01*
X211206266Y-137764654D01*
X211206266Y-137561078D01*
X211393845Y-137561078D01*
X211393845Y-137764654D01*
X212246985Y-137764654D01*
X212354701Y-137758871D01*
X212399515Y-137746946D01*
X212426263Y-137725492D01*
X212442843Y-137694322D01*
X212448974Y-137649860D01*
X212448974Y-137561078D01*
G37*
G36*
X211995659Y-136346214D02*
G01*
X211995659Y-137234281D01*
X212155642Y-137213947D01*
X212275476Y-137174978D01*
X212363977Y-137120830D01*
X212434279Y-137046629D01*
X212474543Y-136965701D01*
X212488053Y-136874877D01*
X212477012Y-136792561D01*
X212444830Y-136721934D01*
X212390132Y-136659944D01*
X212308096Y-136605439D01*
X212191053Y-136559316D01*
X212230132Y-136351587D01*
X212376351Y-136398230D01*
X212489266Y-136461243D01*
X212575003Y-136539532D01*
X212638816Y-136635782D01*
X212677711Y-136746688D01*
X212691263Y-136876221D01*
X212678870Y-136998494D01*
X212643034Y-137105489D01*
X212583949Y-137200450D01*
X212499410Y-137285450D01*
X212400576Y-137349932D01*
X212278662Y-137398774D01*
X212128886Y-137430436D01*
X211945467Y-137441887D01*
X211754716Y-137430267D01*
X211599545Y-137398211D01*
X211473830Y-137348921D01*
X211372473Y-137284106D01*
X211284490Y-137198036D01*
X211223793Y-137104148D01*
X211187446Y-137000627D01*
X211175147Y-136885868D01*
X211378213Y-136885868D01*
X211390469Y-136970953D01*
X211426939Y-137046975D01*
X211490321Y-137116800D01*
X211570001Y-137169185D01*
X211669123Y-137204781D01*
X211792449Y-137221946D01*
X211792449Y-136557972D01*
X211668638Y-136574973D01*
X211577813Y-136602712D01*
X211512669Y-136638572D01*
X211436429Y-136711136D01*
X211392890Y-136792357D01*
X211378213Y-136885868D01*
X211175147Y-136885868D01*
X211175003Y-136884525D01*
X211187099Y-136773954D01*
X211222581Y-136674543D01*
X211282146Y-136583529D01*
X211368932Y-136499232D01*
X211468508Y-136435782D01*
X211591774Y-136387560D01*
X211743658Y-136356222D01*
X211930080Y-136344870D01*
X211995659Y-136346214D01*
G37*
G36*
X212660000Y-135764305D02*
G01*
X211206266Y-136216521D01*
X211206266Y-136003419D01*
X212083464Y-135747941D01*
X212378632Y-135671371D01*
X212100073Y-135597609D01*
X211206266Y-135332606D01*
X211206266Y-135124877D01*
X212660000Y-135575750D01*
X212660000Y-135764305D01*
G37*
G36*
X211995659Y-133923325D02*
G01*
X211995659Y-134811392D01*
X212155642Y-134791058D01*
X212275476Y-134752089D01*
X212363977Y-134697941D01*
X212434279Y-134623739D01*
X212474543Y-134542812D01*
X212488053Y-134451988D01*
X212477012Y-134369672D01*
X212444830Y-134299045D01*
X212390132Y-134237055D01*
X212308096Y-134182550D01*
X212191053Y-134136427D01*
X212230132Y-133928698D01*
X212376351Y-133975341D01*
X212489266Y-134038354D01*
X212575003Y-134116643D01*
X212638816Y-134212893D01*
X212677711Y-134323799D01*
X212691263Y-134453332D01*
X212678870Y-134575605D01*
X212643034Y-134682600D01*
X212583949Y-134777561D01*
X212499410Y-134862561D01*
X212400576Y-134927043D01*
X212278662Y-134975885D01*
X212128886Y-135007547D01*
X211945467Y-135018998D01*
X211754716Y-135007378D01*
X211599545Y-134975322D01*
X211473830Y-134926032D01*
X211372473Y-134861217D01*
X211284490Y-134775147D01*
X211223793Y-134681259D01*
X211187446Y-134577738D01*
X211175147Y-134462979D01*
X211378213Y-134462979D01*
X211390469Y-134548064D01*
X211426939Y-134624086D01*
X211490321Y-134693911D01*
X211570001Y-134746296D01*
X211669123Y-134781892D01*
X211792449Y-134799057D01*
X211792449Y-134135083D01*
X211668638Y-134152084D01*
X211577813Y-134179823D01*
X211512669Y-134215683D01*
X211436429Y-134288247D01*
X211392890Y-134369468D01*
X211378213Y-134462979D01*
X211175147Y-134462979D01*
X211175003Y-134461636D01*
X211187099Y-134351065D01*
X211222581Y-134251654D01*
X211282146Y-134160640D01*
X211368932Y-134076343D01*
X211468508Y-134012893D01*
X211591774Y-133964671D01*
X211743658Y-133933333D01*
X211930080Y-133921981D01*
X211995659Y-133923325D01*
G37*
G36*
X212660000Y-133003628D02*
G01*
X210659162Y-133003628D01*
X210659162Y-131816364D01*
X210893635Y-131816364D01*
X210893635Y-132786374D01*
X211511081Y-132786374D01*
X211511081Y-131877913D01*
X211745554Y-131877913D01*
X211745554Y-132786374D01*
X212425526Y-132786374D01*
X212425526Y-131778140D01*
X212660000Y-131778140D01*
X212660000Y-133003628D01*
G37*
G36*
X212660000Y-131513258D02*
G01*
X210659162Y-131513258D01*
X210659162Y-131312491D01*
X212660000Y-131312491D01*
X212660000Y-131513258D01*
G37*
G36*
X210940530Y-130997906D02*
G01*
X210659162Y-130997906D01*
X210659162Y-130797016D01*
X210940530Y-130797016D01*
X210940530Y-130997906D01*
G37*
G36*
X212660000Y-130997906D02*
G01*
X211206266Y-130997906D01*
X211206266Y-130797016D01*
X212660000Y-130797016D01*
X212660000Y-130997906D01*
G37*
G36*
X212660000Y-129670935D02*
G01*
X212575406Y-129696165D01*
X212469124Y-129711845D01*
X212567985Y-129817651D01*
X212635453Y-129922260D01*
X212677459Y-130034211D01*
X212691263Y-130149040D01*
X212678067Y-130268387D01*
X212640854Y-130365582D01*
X212580498Y-130445551D01*
X212500346Y-130505747D01*
X212402426Y-130542965D01*
X212281667Y-130556193D01*
X212162648Y-130542793D01*
X212061360Y-130504291D01*
X211975499Y-130442506D01*
X211911273Y-130362264D01*
X211867310Y-130258909D01*
X211831528Y-130088956D01*
X211784319Y-129860380D01*
X211737739Y-129728210D01*
X211933133Y-129728210D01*
X211980569Y-129853436D01*
X212026922Y-130057571D01*
X212052159Y-130174463D01*
X212075282Y-130235136D01*
X212108064Y-130280100D01*
X212152096Y-130313782D01*
X212204687Y-130334528D01*
X212266769Y-130341748D01*
X212331156Y-130334183D01*
X212383968Y-130312713D01*
X212427847Y-130277512D01*
X212460253Y-130231284D01*
X212480686Y-130173172D01*
X212488053Y-130099825D01*
X212474244Y-129996441D01*
X212433342Y-129903820D01*
X212369252Y-129826563D01*
X212287285Y-129771929D01*
X212224557Y-129749524D01*
X212137998Y-129734073D01*
X212021182Y-129728210D01*
X211933133Y-129728210D01*
X211737739Y-129728210D01*
X211674846Y-129726866D01*
X211576295Y-129734233D01*
X211509450Y-129753092D01*
X211465652Y-129780111D01*
X211418883Y-129836094D01*
X211389136Y-129911033D01*
X211378213Y-130011043D01*
X211385719Y-130103340D01*
X211405740Y-130171600D01*
X211435854Y-130221458D01*
X211479473Y-130259935D01*
X211548477Y-130294619D01*
X211651765Y-130323918D01*
X211612686Y-130521999D01*
X211466036Y-130481046D01*
X211357639Y-130423325D01*
X211279417Y-130350540D01*
X211224244Y-130258735D01*
X211188267Y-130138257D01*
X211175003Y-129981001D01*
X211183966Y-129857799D01*
X211208331Y-129761787D01*
X211245467Y-129687421D01*
X211297958Y-129623261D01*
X211355691Y-129579351D01*
X211419734Y-129552843D01*
X211535632Y-129532943D01*
X211723328Y-129524755D01*
X212051468Y-129524755D01*
X212365110Y-129520414D01*
X212485732Y-129511810D01*
X212573770Y-129492538D01*
X212660000Y-129460519D01*
X212660000Y-129670935D01*
G37*
G36*
X212230132Y-129288450D02*
G01*
X212191053Y-129089026D01*
X212288147Y-129068720D01*
X212361029Y-129035911D01*
X212414902Y-128992062D01*
X212454611Y-128935281D01*
X212479280Y-128866262D01*
X212488053Y-128781646D01*
X212479943Y-128696538D01*
X212457678Y-128630322D01*
X212422840Y-128578803D01*
X212375352Y-128538887D01*
X212320876Y-128515171D01*
X212257121Y-128506995D01*
X212202388Y-128514183D01*
X212158345Y-128534584D01*
X212122421Y-128568422D01*
X212091268Y-128626757D01*
X212040600Y-128773342D01*
X211966849Y-128987691D01*
X211918356Y-129087683D01*
X211859529Y-129157967D01*
X211783534Y-129210659D01*
X211694822Y-129243110D01*
X211591559Y-129254378D01*
X211473161Y-129240507D01*
X211374390Y-129200878D01*
X211290774Y-129135554D01*
X211228299Y-129049616D01*
X211189099Y-128941901D01*
X211175003Y-128806193D01*
X211187471Y-128679163D01*
X211222752Y-128573307D01*
X211279829Y-128483251D01*
X211350980Y-128419556D01*
X211442021Y-128376722D01*
X211581423Y-128345795D01*
X211620502Y-128542533D01*
X211528510Y-128563331D01*
X211462812Y-128598965D01*
X211417144Y-128648348D01*
X211388603Y-128713828D01*
X211378213Y-128800697D01*
X211385061Y-128886878D01*
X211403257Y-128950209D01*
X211430481Y-128996092D01*
X211468921Y-129032077D01*
X211512767Y-129053126D01*
X211563960Y-129060327D01*
X211614293Y-129053274D01*
X211655598Y-129032997D01*
X211690111Y-128998778D01*
X211718147Y-128943418D01*
X211776939Y-128780181D01*
X211854194Y-128553338D01*
X211900648Y-128456437D01*
X211956302Y-128391190D01*
X212029853Y-128341765D01*
X212116726Y-128311537D01*
X212224148Y-128300732D01*
X212326774Y-128309542D01*
X212415766Y-128334767D01*
X212493629Y-128375605D01*
X212562180Y-128432623D01*
X212617115Y-128502071D01*
X212657181Y-128583519D01*
X212682354Y-128679306D01*
X212691263Y-128792515D01*
X212677629Y-128928960D01*
X212639616Y-129038514D01*
X212579045Y-129126999D01*
X212494283Y-129198022D01*
X212380479Y-129252482D01*
X212230132Y-129288450D01*
G37*
G36*
X212433342Y-126421161D02*
G01*
X212660000Y-126421161D01*
X212660000Y-127507309D01*
X212567144Y-127500429D01*
X212462149Y-127472836D01*
X212342117Y-127420481D01*
X212230129Y-127351858D01*
X212093291Y-127244369D01*
X211926782Y-127087822D01*
X211730800Y-126901458D01*
X211589132Y-126784104D01*
X211489588Y-126717550D01*
X211383882Y-126666988D01*
X211288704Y-126638943D01*
X211201870Y-126630111D01*
X211102870Y-126640697D01*
X211020584Y-126670743D01*
X210951399Y-126719626D01*
X210897283Y-126784434D01*
X210865434Y-126857064D01*
X210854556Y-126940300D01*
X210866272Y-127029429D01*
X210900264Y-127105305D01*
X210957627Y-127171231D01*
X211031481Y-127219091D01*
X211127836Y-127250010D01*
X211253161Y-127261357D01*
X211229713Y-127468963D01*
X211085031Y-127448520D01*
X210967561Y-127413361D01*
X210872683Y-127365480D01*
X210796671Y-127305687D01*
X210733908Y-127230615D01*
X210688910Y-127145047D01*
X210661079Y-127046936D01*
X210651346Y-126933461D01*
X210662983Y-126810305D01*
X210695754Y-126708462D01*
X210748236Y-126623625D01*
X210821461Y-126552930D01*
X210940143Y-126481139D01*
X211068003Y-126438373D01*
X211208098Y-126423848D01*
X211333397Y-126434927D01*
X211455518Y-126468257D01*
X211576172Y-126524965D01*
X211690022Y-126600167D01*
X211843471Y-126723228D01*
X212046217Y-126908792D01*
X212298764Y-127141800D01*
X212367182Y-127190172D01*
X212433342Y-127227163D01*
X212433342Y-126421161D01*
G37*
G36*
X211931181Y-125147362D02*
G01*
X212138777Y-125175754D01*
X212303157Y-125218340D01*
X212431755Y-125272243D01*
X212528938Y-125334521D01*
X212600554Y-125404705D01*
X212650508Y-125483320D01*
X212680786Y-125572119D01*
X212691263Y-125673900D01*
X212677372Y-125784493D01*
X212636382Y-125883551D01*
X212566497Y-125974334D01*
X212462407Y-126058461D01*
X212348295Y-126115985D01*
X212187575Y-126163118D01*
X211967177Y-126195711D01*
X211672037Y-126208060D01*
X211411294Y-126197556D01*
X211202958Y-126168995D01*
X211038480Y-126126214D01*
X210910244Y-126072138D01*
X210813226Y-126009594D01*
X210741759Y-125939322D01*
X210691943Y-125860804D01*
X210661776Y-125772312D01*
X210652340Y-125680739D01*
X210854556Y-125680739D01*
X210863992Y-125743116D01*
X210892580Y-125800889D01*
X210943269Y-125856130D01*
X211021985Y-125909595D01*
X211104166Y-125943624D01*
X211229868Y-125972826D01*
X211413412Y-125993707D01*
X211671304Y-126001796D01*
X211931630Y-125993548D01*
X212115948Y-125972306D01*
X212241369Y-125942680D01*
X212322700Y-125908251D01*
X212399475Y-125854254D01*
X212449672Y-125797070D01*
X212478438Y-125735848D01*
X212488053Y-125668405D01*
X212478584Y-125605326D01*
X212449933Y-125547001D01*
X212399225Y-125491348D01*
X212320624Y-125437595D01*
X212238406Y-125403284D01*
X212112691Y-125373854D01*
X211929160Y-125352813D01*
X211671304Y-125344661D01*
X211410062Y-125352938D01*
X211225490Y-125374234D01*
X211100236Y-125403900D01*
X211019298Y-125438328D01*
X210943078Y-125492218D01*
X210893034Y-125549771D01*
X210864222Y-125611867D01*
X210854556Y-125680739D01*
X210652340Y-125680739D01*
X210651346Y-125671092D01*
X210664563Y-125559423D01*
X210702937Y-125462569D01*
X210767139Y-125376982D01*
X210861151Y-125300819D01*
X210987903Y-125236444D01*
X211157892Y-125184901D01*
X211381834Y-125149967D01*
X211672037Y-125136933D01*
X211931181Y-125147362D01*
G37*
G36*
X212433342Y-123869312D02*
G01*
X212660000Y-123869312D01*
X212660000Y-124955460D01*
X212567144Y-124948580D01*
X212462149Y-124920987D01*
X212342117Y-124868632D01*
X212230129Y-124800008D01*
X212093291Y-124692520D01*
X211926782Y-124535973D01*
X211730800Y-124349609D01*
X211589132Y-124232254D01*
X211489588Y-124165701D01*
X211383882Y-124115139D01*
X211288704Y-124087094D01*
X211201870Y-124078262D01*
X211102870Y-124088847D01*
X211020584Y-124118894D01*
X210951399Y-124167777D01*
X210897283Y-124232585D01*
X210865434Y-124305214D01*
X210854556Y-124388450D01*
X210866272Y-124477580D01*
X210900264Y-124553455D01*
X210957627Y-124619382D01*
X211031481Y-124667242D01*
X211127836Y-124698161D01*
X211253161Y-124709508D01*
X211229713Y-124917114D01*
X211085031Y-124896670D01*
X210967561Y-124861512D01*
X210872683Y-124813631D01*
X210796671Y-124753838D01*
X210733908Y-124678765D01*
X210688910Y-124593198D01*
X210661079Y-124495087D01*
X210651346Y-124381612D01*
X210662983Y-124258455D01*
X210695754Y-124156613D01*
X210748236Y-124071776D01*
X210821461Y-124001081D01*
X210940143Y-123929290D01*
X211068003Y-123886524D01*
X211208098Y-123871999D01*
X211333397Y-123883078D01*
X211455518Y-123916408D01*
X211576172Y-123973115D01*
X211690022Y-124048318D01*
X211843471Y-124171379D01*
X212046217Y-124356943D01*
X212298764Y-124589951D01*
X212367182Y-124638323D01*
X212433342Y-124675314D01*
X212433342Y-123869312D01*
G37*
G36*
X212142403Y-122589519D02*
G01*
X212262790Y-122614130D01*
X212373381Y-122654204D01*
X212476462Y-122710195D01*
X212555298Y-122772829D01*
X212613715Y-122842027D01*
X212656930Y-122921448D01*
X212682602Y-123005175D01*
X212691263Y-123094818D01*
X212677463Y-123212987D01*
X212636922Y-123318768D01*
X212568461Y-123415392D01*
X212467780Y-123504658D01*
X212355191Y-123567702D01*
X212201076Y-123618354D01*
X211994407Y-123652891D01*
X211722351Y-123665858D01*
X211473548Y-123657114D01*
X211273953Y-123633313D01*
X211115870Y-123597689D01*
X210992354Y-123552845D01*
X210897299Y-123500628D01*
X210804908Y-123427141D01*
X210736694Y-123349040D01*
X210689349Y-123265683D01*
X210660999Y-123175678D01*
X210651346Y-123076988D01*
X210665945Y-122957537D01*
X210708339Y-122854358D01*
X210779452Y-122763503D01*
X210872267Y-122693349D01*
X210993862Y-122641367D01*
X211151556Y-122609752D01*
X211167187Y-122810519D01*
X211066203Y-122835462D01*
X210996039Y-122864195D01*
X210949323Y-122895272D01*
X210895695Y-122954071D01*
X210864893Y-123017913D01*
X210854556Y-123089200D01*
X210866980Y-123169332D01*
X210904330Y-123241627D01*
X210970348Y-123308938D01*
X211073032Y-123372034D01*
X211202615Y-123418946D01*
X211383572Y-123451799D01*
X211630150Y-123464968D01*
X211547075Y-123412820D01*
X211481257Y-123354583D01*
X211430481Y-123290090D01*
X211392354Y-123217640D01*
X211370013Y-123143846D01*
X211366431Y-123107030D01*
X211581423Y-123107030D01*
X211593836Y-123189296D01*
X211631267Y-123264669D01*
X211697316Y-123335886D01*
X211779761Y-123388352D01*
X211882528Y-123421601D01*
X212011046Y-123433583D01*
X212151326Y-123421060D01*
X212264926Y-123386188D01*
X212357260Y-123331123D01*
X212432469Y-123255810D01*
X212474337Y-123177542D01*
X212488053Y-123093353D01*
X212475397Y-123019822D01*
X212436233Y-122949936D01*
X212364710Y-122880983D01*
X212277673Y-122831186D01*
X212166839Y-122799039D01*
X212025945Y-122787316D01*
X211887781Y-122799035D01*
X211780721Y-122830985D01*
X211698049Y-122880251D01*
X211631882Y-122948653D01*
X211594089Y-123023257D01*
X211581423Y-123107030D01*
X211366431Y-123107030D01*
X211362581Y-123067463D01*
X211373200Y-122974575D01*
X211404854Y-122888102D01*
X211458929Y-122805895D01*
X211538925Y-122726622D01*
X211630188Y-122665235D01*
X211737151Y-122619901D01*
X211862734Y-122591221D01*
X212010558Y-122581053D01*
X212142403Y-122589519D01*
G37*
G36*
X208490000Y-142745926D02*
G01*
X205488743Y-142745926D01*
X205488743Y-142420045D01*
X206976732Y-142420045D01*
X205488743Y-141196571D01*
X205488743Y-140753820D01*
X206705989Y-141788799D01*
X208490000Y-140708757D01*
X208490000Y-141139235D01*
X206977281Y-142016311D01*
X207450075Y-142420045D01*
X208490000Y-142420045D01*
X208490000Y-142745926D01*
G37*
G36*
X207505212Y-140549389D02*
G01*
X207481765Y-140242009D01*
X207645372Y-140216356D01*
X207771607Y-140178308D01*
X207867547Y-140130451D01*
X207990587Y-140026275D01*
X208089563Y-139881324D01*
X208151928Y-139711542D01*
X208173461Y-139516425D01*
X208155924Y-139327341D01*
X208107778Y-139179799D01*
X208032594Y-139064698D01*
X207929437Y-138975383D01*
X207809205Y-138922134D01*
X207666413Y-138903681D01*
X207540860Y-138918813D01*
X207436153Y-138962116D01*
X207348230Y-139033691D01*
X207274952Y-139138337D01*
X207210283Y-139291431D01*
X207094152Y-139647583D01*
X206979779Y-139967966D01*
X206885324Y-140143640D01*
X206767778Y-140274823D01*
X206622458Y-140373168D01*
X206455224Y-140433990D01*
X206261955Y-140455050D01*
X206084952Y-140439483D01*
X205930093Y-140394710D01*
X205793227Y-140321822D01*
X205671376Y-140219478D01*
X205573395Y-140095245D01*
X205502169Y-139950743D01*
X205457579Y-139782061D01*
X205441849Y-139584019D01*
X205454565Y-139403576D01*
X205491036Y-139244533D01*
X205549743Y-139103532D01*
X205632313Y-138976075D01*
X205734781Y-138870176D01*
X205858954Y-138783879D01*
X205997295Y-138721098D01*
X206154134Y-138679968D01*
X206332847Y-138661880D01*
X206356294Y-138975488D01*
X206167504Y-139008904D01*
X206026599Y-139068433D01*
X205922885Y-139150793D01*
X205847240Y-139259274D01*
X205799237Y-139397438D01*
X205781835Y-139573761D01*
X205797541Y-139754493D01*
X205840067Y-139891992D01*
X205905300Y-139995996D01*
X205995783Y-140076968D01*
X206100509Y-140124905D01*
X206224220Y-140141442D01*
X206340587Y-140128532D01*
X206432512Y-140092567D01*
X206505587Y-140034830D01*
X206561343Y-139955146D01*
X206628771Y-139805932D01*
X206709103Y-139555443D01*
X206812929Y-139219278D01*
X206885324Y-139043082D01*
X206973141Y-138901688D01*
X207074019Y-138789515D01*
X207188490Y-138702913D01*
X207317689Y-138640408D01*
X207465320Y-138601624D01*
X207635272Y-138588058D01*
X207803729Y-138601800D01*
X207959314Y-138642144D01*
X208104584Y-138708958D01*
X208235400Y-138800092D01*
X208342003Y-138909233D01*
X208426618Y-139037953D01*
X208486165Y-139180564D01*
X208523660Y-139346108D01*
X208536894Y-139538956D01*
X208518043Y-139764386D01*
X208464416Y-139957307D01*
X208378252Y-140123619D01*
X208258824Y-140267655D01*
X208112264Y-140383969D01*
X207941094Y-140470105D01*
X207740746Y-140526087D01*
X207505212Y-140549389D01*
G37*
G36*
X208490000Y-137200636D02*
G01*
X205488743Y-137200636D01*
X205488743Y-136874755D01*
X206976732Y-136874755D01*
X205488743Y-135651282D01*
X205488743Y-135208531D01*
X206705989Y-136243510D01*
X208490000Y-135163468D01*
X208490000Y-135593946D01*
X206977281Y-136471022D01*
X207450075Y-136874755D01*
X208490000Y-136874755D01*
X208490000Y-137200636D01*
G37*
G36*
X205910795Y-134938520D02*
G01*
X205488743Y-134938520D01*
X205488743Y-134637185D01*
X205910795Y-134637185D01*
X205910795Y-134938520D01*
G37*
G36*
X208490000Y-134938520D02*
G01*
X206309399Y-134938520D01*
X206309399Y-134637185D01*
X208490000Y-134637185D01*
X208490000Y-134938520D01*
G37*
G36*
X208490000Y-134181612D02*
G01*
X205488743Y-134181612D01*
X205488743Y-133880460D01*
X208490000Y-133880460D01*
X208490000Y-134181612D01*
G37*
G36*
X208490000Y-133408583D02*
G01*
X206309399Y-133408583D01*
X206309399Y-133136008D01*
X206618061Y-133136008D01*
X206505406Y-133062852D01*
X206417485Y-132982694D01*
X206350982Y-132895307D01*
X206302337Y-132796982D01*
X206272704Y-132688749D01*
X206262505Y-132568326D01*
X206276835Y-132429200D01*
X206318925Y-132302896D01*
X206385245Y-132191120D01*
X206466570Y-132106158D01*
X206567755Y-132042629D01*
X206703424Y-131994600D01*
X206868519Y-131968560D01*
X207150572Y-131957597D01*
X208490000Y-131957597D01*
X208490000Y-132260947D01*
X207162662Y-132260947D01*
X206938556Y-132273196D01*
X206811318Y-132301980D01*
X206711746Y-132355283D01*
X206639677Y-132430024D01*
X206594506Y-132522990D01*
X206579043Y-132631891D01*
X206597652Y-132768915D01*
X206651212Y-132882454D01*
X206741343Y-132978288D01*
X206857978Y-133043413D01*
X207036050Y-133089286D01*
X207298217Y-133107248D01*
X208490000Y-133107248D01*
X208490000Y-133408583D01*
G37*
G36*
X208490000Y-130039131D02*
G01*
X206309399Y-130717454D01*
X206309399Y-130397801D01*
X207625197Y-130014584D01*
X208067948Y-129899729D01*
X207650109Y-129789087D01*
X206309399Y-129391582D01*
X206309399Y-129079989D01*
X208490000Y-129756297D01*
X208490000Y-130039131D01*
G37*
G36*
X208490000Y-127763276D02*
G01*
X208490000Y-128066625D01*
X206145268Y-128066625D01*
X206264704Y-128183582D01*
X206396777Y-128347444D01*
X206513217Y-128522893D01*
X206590767Y-128671127D01*
X206239057Y-128671127D01*
X206077691Y-128435200D01*
X205884966Y-128229474D01*
X205739736Y-128109229D01*
X205604240Y-128020895D01*
X205477020Y-127960013D01*
X205477020Y-127763276D01*
X208490000Y-127763276D01*
G37*
G36*
X208490000Y-126808531D02*
G01*
X208067948Y-126808531D01*
X208067948Y-126464148D01*
X208490000Y-126464148D01*
X208490000Y-126808531D01*
G37*
G36*
X207396772Y-124442258D02*
G01*
X207708165Y-124484845D01*
X207954736Y-124548725D01*
X208147632Y-124629579D01*
X208293407Y-124722996D01*
X208400832Y-124828272D01*
X208475763Y-124946194D01*
X208521179Y-125079393D01*
X208536894Y-125232065D01*
X208516058Y-125397954D01*
X208454573Y-125546541D01*
X208349746Y-125682716D01*
X208193611Y-125808906D01*
X208022443Y-125895191D01*
X207781362Y-125965891D01*
X207450765Y-126014781D01*
X207008056Y-126033304D01*
X206616941Y-126017548D01*
X206304437Y-125974707D01*
X206057720Y-125910535D01*
X205865366Y-125829422D01*
X205719839Y-125735605D01*
X205612638Y-125630198D01*
X205537914Y-125512421D01*
X205492664Y-125379682D01*
X205478511Y-125242323D01*
X205781835Y-125242323D01*
X205795988Y-125335889D01*
X205838870Y-125422549D01*
X205914904Y-125505409D01*
X206032978Y-125585607D01*
X206156250Y-125636650D01*
X206344803Y-125680453D01*
X206620118Y-125711774D01*
X207006957Y-125723909D01*
X207397445Y-125711537D01*
X207673922Y-125679673D01*
X207862054Y-125635235D01*
X207984050Y-125583592D01*
X208099213Y-125502596D01*
X208174508Y-125416819D01*
X208217658Y-125324986D01*
X208232079Y-125223822D01*
X208217876Y-125129203D01*
X208174900Y-125041716D01*
X208098837Y-124958236D01*
X207980936Y-124877608D01*
X207857610Y-124826141D01*
X207669037Y-124781995D01*
X207393740Y-124750433D01*
X207006957Y-124738206D01*
X206615093Y-124750621D01*
X206338235Y-124782566D01*
X206150354Y-124827064D01*
X206028948Y-124878707D01*
X205914618Y-124959541D01*
X205839552Y-125045871D01*
X205796333Y-125139015D01*
X205781835Y-125242323D01*
X205478511Y-125242323D01*
X205477020Y-125227852D01*
X205496845Y-125060349D01*
X205554406Y-124915068D01*
X205650708Y-124786688D01*
X205791727Y-124672444D01*
X205981855Y-124575880D01*
X206236838Y-124498566D01*
X206572751Y-124446165D01*
X207008056Y-124426613D01*
X207396772Y-124442258D01*
G37*
D11*
X212454819Y-82333333D02*
X213169104Y-82333333D01*
X213169104Y-82333333D02*
X213311961Y-82380952D01*
X213311961Y-82380952D02*
X213407200Y-82476190D01*
X213407200Y-82476190D02*
X213454819Y-82619047D01*
X213454819Y-82619047D02*
X213454819Y-82714285D01*
X212454819Y-81380952D02*
X212454819Y-81857142D01*
X212454819Y-81857142D02*
X212931009Y-81904761D01*
X212931009Y-81904761D02*
X212883390Y-81857142D01*
X212883390Y-81857142D02*
X212835771Y-81761904D01*
X212835771Y-81761904D02*
X212835771Y-81523809D01*
X212835771Y-81523809D02*
X212883390Y-81428571D01*
X212883390Y-81428571D02*
X212931009Y-81380952D01*
X212931009Y-81380952D02*
X213026247Y-81333333D01*
X213026247Y-81333333D02*
X213264342Y-81333333D01*
X213264342Y-81333333D02*
X213359580Y-81380952D01*
X213359580Y-81380952D02*
X213407200Y-81428571D01*
X213407200Y-81428571D02*
X213454819Y-81523809D01*
X213454819Y-81523809D02*
X213454819Y-81761904D01*
X213454819Y-81761904D02*
X213407200Y-81857142D01*
X213407200Y-81857142D02*
X213359580Y-81904761D01*
X189334819Y-103349523D02*
X190049104Y-103349523D01*
X190049104Y-103349523D02*
X190191961Y-103397142D01*
X190191961Y-103397142D02*
X190287200Y-103492380D01*
X190287200Y-103492380D02*
X190334819Y-103635237D01*
X190334819Y-103635237D02*
X190334819Y-103730475D01*
X190334819Y-102349523D02*
X190334819Y-102920951D01*
X190334819Y-102635237D02*
X189334819Y-102635237D01*
X189334819Y-102635237D02*
X189477676Y-102730475D01*
X189477676Y-102730475D02*
X189572914Y-102825713D01*
X189572914Y-102825713D02*
X189620533Y-102920951D01*
X189430057Y-101968570D02*
X189382438Y-101920951D01*
X189382438Y-101920951D02*
X189334819Y-101825713D01*
X189334819Y-101825713D02*
X189334819Y-101587618D01*
X189334819Y-101587618D02*
X189382438Y-101492380D01*
X189382438Y-101492380D02*
X189430057Y-101444761D01*
X189430057Y-101444761D02*
X189525295Y-101397142D01*
X189525295Y-101397142D02*
X189620533Y-101397142D01*
X189620533Y-101397142D02*
X189763390Y-101444761D01*
X189763390Y-101444761D02*
X190334819Y-102016189D01*
X190334819Y-102016189D02*
X190334819Y-101397142D01*
X161144819Y-78166666D02*
X160668628Y-78499999D01*
X161144819Y-78738094D02*
X160144819Y-78738094D01*
X160144819Y-78738094D02*
X160144819Y-78357142D01*
X160144819Y-78357142D02*
X160192438Y-78261904D01*
X160192438Y-78261904D02*
X160240057Y-78214285D01*
X160240057Y-78214285D02*
X160335295Y-78166666D01*
X160335295Y-78166666D02*
X160478152Y-78166666D01*
X160478152Y-78166666D02*
X160573390Y-78214285D01*
X160573390Y-78214285D02*
X160621009Y-78261904D01*
X160621009Y-78261904D02*
X160668628Y-78357142D01*
X160668628Y-78357142D02*
X160668628Y-78738094D01*
X160144819Y-77261904D02*
X160144819Y-77738094D01*
X160144819Y-77738094D02*
X160621009Y-77785713D01*
X160621009Y-77785713D02*
X160573390Y-77738094D01*
X160573390Y-77738094D02*
X160525771Y-77642856D01*
X160525771Y-77642856D02*
X160525771Y-77404761D01*
X160525771Y-77404761D02*
X160573390Y-77309523D01*
X160573390Y-77309523D02*
X160621009Y-77261904D01*
X160621009Y-77261904D02*
X160716247Y-77214285D01*
X160716247Y-77214285D02*
X160954342Y-77214285D01*
X160954342Y-77214285D02*
X161049580Y-77261904D01*
X161049580Y-77261904D02*
X161097200Y-77309523D01*
X161097200Y-77309523D02*
X161144819Y-77404761D01*
X161144819Y-77404761D02*
X161144819Y-77642856D01*
X161144819Y-77642856D02*
X161097200Y-77738094D01*
X161097200Y-77738094D02*
X161049580Y-77785713D01*
X200833333Y-109359580D02*
X200785714Y-109407200D01*
X200785714Y-109407200D02*
X200642857Y-109454819D01*
X200642857Y-109454819D02*
X200547619Y-109454819D01*
X200547619Y-109454819D02*
X200404762Y-109407200D01*
X200404762Y-109407200D02*
X200309524Y-109311961D01*
X200309524Y-109311961D02*
X200261905Y-109216723D01*
X200261905Y-109216723D02*
X200214286Y-109026247D01*
X200214286Y-109026247D02*
X200214286Y-108883390D01*
X200214286Y-108883390D02*
X200261905Y-108692914D01*
X200261905Y-108692914D02*
X200309524Y-108597676D01*
X200309524Y-108597676D02*
X200404762Y-108502438D01*
X200404762Y-108502438D02*
X200547619Y-108454819D01*
X200547619Y-108454819D02*
X200642857Y-108454819D01*
X200642857Y-108454819D02*
X200785714Y-108502438D01*
X200785714Y-108502438D02*
X200833333Y-108550057D01*
X201738095Y-108454819D02*
X201261905Y-108454819D01*
X201261905Y-108454819D02*
X201214286Y-108931009D01*
X201214286Y-108931009D02*
X201261905Y-108883390D01*
X201261905Y-108883390D02*
X201357143Y-108835771D01*
X201357143Y-108835771D02*
X201595238Y-108835771D01*
X201595238Y-108835771D02*
X201690476Y-108883390D01*
X201690476Y-108883390D02*
X201738095Y-108931009D01*
X201738095Y-108931009D02*
X201785714Y-109026247D01*
X201785714Y-109026247D02*
X201785714Y-109264342D01*
X201785714Y-109264342D02*
X201738095Y-109359580D01*
X201738095Y-109359580D02*
X201690476Y-109407200D01*
X201690476Y-109407200D02*
X201595238Y-109454819D01*
X201595238Y-109454819D02*
X201357143Y-109454819D01*
X201357143Y-109454819D02*
X201261905Y-109407200D01*
X201261905Y-109407200D02*
X201214286Y-109359580D01*
X188650476Y-151574819D02*
X188650476Y-152289104D01*
X188650476Y-152289104D02*
X188602857Y-152431961D01*
X188602857Y-152431961D02*
X188507619Y-152527200D01*
X188507619Y-152527200D02*
X188364762Y-152574819D01*
X188364762Y-152574819D02*
X188269524Y-152574819D01*
X189650476Y-152574819D02*
X189079048Y-152574819D01*
X189364762Y-152574819D02*
X189364762Y-151574819D01*
X189364762Y-151574819D02*
X189269524Y-151717676D01*
X189269524Y-151717676D02*
X189174286Y-151812914D01*
X189174286Y-151812914D02*
X189079048Y-151860533D01*
X190269524Y-151574819D02*
X190364762Y-151574819D01*
X190364762Y-151574819D02*
X190460000Y-151622438D01*
X190460000Y-151622438D02*
X190507619Y-151670057D01*
X190507619Y-151670057D02*
X190555238Y-151765295D01*
X190555238Y-151765295D02*
X190602857Y-151955771D01*
X190602857Y-151955771D02*
X190602857Y-152193866D01*
X190602857Y-152193866D02*
X190555238Y-152384342D01*
X190555238Y-152384342D02*
X190507619Y-152479580D01*
X190507619Y-152479580D02*
X190460000Y-152527200D01*
X190460000Y-152527200D02*
X190364762Y-152574819D01*
X190364762Y-152574819D02*
X190269524Y-152574819D01*
X190269524Y-152574819D02*
X190174286Y-152527200D01*
X190174286Y-152527200D02*
X190126667Y-152479580D01*
X190126667Y-152479580D02*
X190079048Y-152384342D01*
X190079048Y-152384342D02*
X190031429Y-152193866D01*
X190031429Y-152193866D02*
X190031429Y-151955771D01*
X190031429Y-151955771D02*
X190079048Y-151765295D01*
X190079048Y-151765295D02*
X190126667Y-151670057D01*
X190126667Y-151670057D02*
X190174286Y-151622438D01*
X190174286Y-151622438D02*
X190269524Y-151574819D01*
X106304819Y-122333333D02*
X107019104Y-122333333D01*
X107019104Y-122333333D02*
X107161961Y-122380952D01*
X107161961Y-122380952D02*
X107257200Y-122476190D01*
X107257200Y-122476190D02*
X107304819Y-122619047D01*
X107304819Y-122619047D02*
X107304819Y-122714285D01*
X106638152Y-121428571D02*
X107304819Y-121428571D01*
X106257200Y-121666666D02*
X106971485Y-121904761D01*
X106971485Y-121904761D02*
X106971485Y-121285714D01*
X138954819Y-78578094D02*
X137954819Y-78578094D01*
X137954819Y-78578094D02*
X137954819Y-78339999D01*
X137954819Y-78339999D02*
X138002438Y-78197142D01*
X138002438Y-78197142D02*
X138097676Y-78101904D01*
X138097676Y-78101904D02*
X138192914Y-78054285D01*
X138192914Y-78054285D02*
X138383390Y-78006666D01*
X138383390Y-78006666D02*
X138526247Y-78006666D01*
X138526247Y-78006666D02*
X138716723Y-78054285D01*
X138716723Y-78054285D02*
X138811961Y-78101904D01*
X138811961Y-78101904D02*
X138907200Y-78197142D01*
X138907200Y-78197142D02*
X138954819Y-78339999D01*
X138954819Y-78339999D02*
X138954819Y-78578094D01*
X138050057Y-77625713D02*
X138002438Y-77578094D01*
X138002438Y-77578094D02*
X137954819Y-77482856D01*
X137954819Y-77482856D02*
X137954819Y-77244761D01*
X137954819Y-77244761D02*
X138002438Y-77149523D01*
X138002438Y-77149523D02*
X138050057Y-77101904D01*
X138050057Y-77101904D02*
X138145295Y-77054285D01*
X138145295Y-77054285D02*
X138240533Y-77054285D01*
X138240533Y-77054285D02*
X138383390Y-77101904D01*
X138383390Y-77101904D02*
X138954819Y-77673332D01*
X138954819Y-77673332D02*
X138954819Y-77054285D01*
X143854819Y-73021904D02*
X142854819Y-73021904D01*
X143854819Y-72450476D02*
X143283390Y-72879047D01*
X142854819Y-72450476D02*
X143426247Y-73021904D01*
X184346666Y-69954819D02*
X184346666Y-70669104D01*
X184346666Y-70669104D02*
X184299047Y-70811961D01*
X184299047Y-70811961D02*
X184203809Y-70907200D01*
X184203809Y-70907200D02*
X184060952Y-70954819D01*
X184060952Y-70954819D02*
X183965714Y-70954819D01*
X184775238Y-70050057D02*
X184822857Y-70002438D01*
X184822857Y-70002438D02*
X184918095Y-69954819D01*
X184918095Y-69954819D02*
X185156190Y-69954819D01*
X185156190Y-69954819D02*
X185251428Y-70002438D01*
X185251428Y-70002438D02*
X185299047Y-70050057D01*
X185299047Y-70050057D02*
X185346666Y-70145295D01*
X185346666Y-70145295D02*
X185346666Y-70240533D01*
X185346666Y-70240533D02*
X185299047Y-70383390D01*
X185299047Y-70383390D02*
X184727619Y-70954819D01*
X184727619Y-70954819D02*
X185346666Y-70954819D01*
X168954819Y-78738094D02*
X167954819Y-78738094D01*
X167954819Y-78738094D02*
X167954819Y-78499999D01*
X167954819Y-78499999D02*
X168002438Y-78357142D01*
X168002438Y-78357142D02*
X168097676Y-78261904D01*
X168097676Y-78261904D02*
X168192914Y-78214285D01*
X168192914Y-78214285D02*
X168383390Y-78166666D01*
X168383390Y-78166666D02*
X168526247Y-78166666D01*
X168526247Y-78166666D02*
X168716723Y-78214285D01*
X168716723Y-78214285D02*
X168811961Y-78261904D01*
X168811961Y-78261904D02*
X168907200Y-78357142D01*
X168907200Y-78357142D02*
X168954819Y-78499999D01*
X168954819Y-78499999D02*
X168954819Y-78738094D01*
X168954819Y-77214285D02*
X168954819Y-77785713D01*
X168954819Y-77499999D02*
X167954819Y-77499999D01*
X167954819Y-77499999D02*
X168097676Y-77595237D01*
X168097676Y-77595237D02*
X168192914Y-77690475D01*
X168192914Y-77690475D02*
X168240533Y-77785713D01*
X173854819Y-73021904D02*
X172854819Y-73021904D01*
X173854819Y-72450476D02*
X173283390Y-72879047D01*
X172854819Y-72450476D02*
X173426247Y-73021904D01*
X142833333Y-140359580D02*
X142785714Y-140407200D01*
X142785714Y-140407200D02*
X142642857Y-140454819D01*
X142642857Y-140454819D02*
X142547619Y-140454819D01*
X142547619Y-140454819D02*
X142404762Y-140407200D01*
X142404762Y-140407200D02*
X142309524Y-140311961D01*
X142309524Y-140311961D02*
X142261905Y-140216723D01*
X142261905Y-140216723D02*
X142214286Y-140026247D01*
X142214286Y-140026247D02*
X142214286Y-139883390D01*
X142214286Y-139883390D02*
X142261905Y-139692914D01*
X142261905Y-139692914D02*
X142309524Y-139597676D01*
X142309524Y-139597676D02*
X142404762Y-139502438D01*
X142404762Y-139502438D02*
X142547619Y-139454819D01*
X142547619Y-139454819D02*
X142642857Y-139454819D01*
X142642857Y-139454819D02*
X142785714Y-139502438D01*
X142785714Y-139502438D02*
X142833333Y-139550057D01*
X143214286Y-139550057D02*
X143261905Y-139502438D01*
X143261905Y-139502438D02*
X143357143Y-139454819D01*
X143357143Y-139454819D02*
X143595238Y-139454819D01*
X143595238Y-139454819D02*
X143690476Y-139502438D01*
X143690476Y-139502438D02*
X143738095Y-139550057D01*
X143738095Y-139550057D02*
X143785714Y-139645295D01*
X143785714Y-139645295D02*
X143785714Y-139740533D01*
X143785714Y-139740533D02*
X143738095Y-139883390D01*
X143738095Y-139883390D02*
X143166667Y-140454819D01*
X143166667Y-140454819D02*
X143785714Y-140454819D01*
X209839819Y-103339523D02*
X210554104Y-103339523D01*
X210554104Y-103339523D02*
X210696961Y-103387142D01*
X210696961Y-103387142D02*
X210792200Y-103482380D01*
X210792200Y-103482380D02*
X210839819Y-103625237D01*
X210839819Y-103625237D02*
X210839819Y-103720475D01*
X210839819Y-102339523D02*
X210839819Y-102910951D01*
X210839819Y-102625237D02*
X209839819Y-102625237D01*
X209839819Y-102625237D02*
X209982676Y-102720475D01*
X209982676Y-102720475D02*
X210077914Y-102815713D01*
X210077914Y-102815713D02*
X210125533Y-102910951D01*
X209839819Y-102006189D02*
X209839819Y-101387142D01*
X209839819Y-101387142D02*
X210220771Y-101720475D01*
X210220771Y-101720475D02*
X210220771Y-101577618D01*
X210220771Y-101577618D02*
X210268390Y-101482380D01*
X210268390Y-101482380D02*
X210316009Y-101434761D01*
X210316009Y-101434761D02*
X210411247Y-101387142D01*
X210411247Y-101387142D02*
X210649342Y-101387142D01*
X210649342Y-101387142D02*
X210744580Y-101434761D01*
X210744580Y-101434761D02*
X210792200Y-101482380D01*
X210792200Y-101482380D02*
X210839819Y-101577618D01*
X210839819Y-101577618D02*
X210839819Y-101863332D01*
X210839819Y-101863332D02*
X210792200Y-101958570D01*
X210792200Y-101958570D02*
X210744580Y-102006189D01*
X125666666Y-82454819D02*
X125666666Y-83169104D01*
X125666666Y-83169104D02*
X125619047Y-83311961D01*
X125619047Y-83311961D02*
X125523809Y-83407200D01*
X125523809Y-83407200D02*
X125380952Y-83454819D01*
X125380952Y-83454819D02*
X125285714Y-83454819D01*
X126285714Y-82883390D02*
X126190476Y-82835771D01*
X126190476Y-82835771D02*
X126142857Y-82788152D01*
X126142857Y-82788152D02*
X126095238Y-82692914D01*
X126095238Y-82692914D02*
X126095238Y-82645295D01*
X126095238Y-82645295D02*
X126142857Y-82550057D01*
X126142857Y-82550057D02*
X126190476Y-82502438D01*
X126190476Y-82502438D02*
X126285714Y-82454819D01*
X126285714Y-82454819D02*
X126476190Y-82454819D01*
X126476190Y-82454819D02*
X126571428Y-82502438D01*
X126571428Y-82502438D02*
X126619047Y-82550057D01*
X126619047Y-82550057D02*
X126666666Y-82645295D01*
X126666666Y-82645295D02*
X126666666Y-82692914D01*
X126666666Y-82692914D02*
X126619047Y-82788152D01*
X126619047Y-82788152D02*
X126571428Y-82835771D01*
X126571428Y-82835771D02*
X126476190Y-82883390D01*
X126476190Y-82883390D02*
X126285714Y-82883390D01*
X126285714Y-82883390D02*
X126190476Y-82931009D01*
X126190476Y-82931009D02*
X126142857Y-82978628D01*
X126142857Y-82978628D02*
X126095238Y-83073866D01*
X126095238Y-83073866D02*
X126095238Y-83264342D01*
X126095238Y-83264342D02*
X126142857Y-83359580D01*
X126142857Y-83359580D02*
X126190476Y-83407200D01*
X126190476Y-83407200D02*
X126285714Y-83454819D01*
X126285714Y-83454819D02*
X126476190Y-83454819D01*
X126476190Y-83454819D02*
X126571428Y-83407200D01*
X126571428Y-83407200D02*
X126619047Y-83359580D01*
X126619047Y-83359580D02*
X126666666Y-83264342D01*
X126666666Y-83264342D02*
X126666666Y-83073866D01*
X126666666Y-83073866D02*
X126619047Y-82978628D01*
X126619047Y-82978628D02*
X126571428Y-82931009D01*
X126571428Y-82931009D02*
X126476190Y-82883390D01*
X189954819Y-78166666D02*
X189478628Y-78499999D01*
X189954819Y-78738094D02*
X188954819Y-78738094D01*
X188954819Y-78738094D02*
X188954819Y-78357142D01*
X188954819Y-78357142D02*
X189002438Y-78261904D01*
X189002438Y-78261904D02*
X189050057Y-78214285D01*
X189050057Y-78214285D02*
X189145295Y-78166666D01*
X189145295Y-78166666D02*
X189288152Y-78166666D01*
X189288152Y-78166666D02*
X189383390Y-78214285D01*
X189383390Y-78214285D02*
X189431009Y-78261904D01*
X189431009Y-78261904D02*
X189478628Y-78357142D01*
X189478628Y-78357142D02*
X189478628Y-78738094D01*
X189954819Y-77214285D02*
X189954819Y-77785713D01*
X189954819Y-77499999D02*
X188954819Y-77499999D01*
X188954819Y-77499999D02*
X189097676Y-77595237D01*
X189097676Y-77595237D02*
X189192914Y-77690475D01*
X189192914Y-77690475D02*
X189240533Y-77785713D01*
X151966666Y-69954819D02*
X151966666Y-70669104D01*
X151966666Y-70669104D02*
X151919047Y-70811961D01*
X151919047Y-70811961D02*
X151823809Y-70907200D01*
X151823809Y-70907200D02*
X151680952Y-70954819D01*
X151680952Y-70954819D02*
X151585714Y-70954819D01*
X152347619Y-69954819D02*
X152966666Y-69954819D01*
X152966666Y-69954819D02*
X152633333Y-70335771D01*
X152633333Y-70335771D02*
X152776190Y-70335771D01*
X152776190Y-70335771D02*
X152871428Y-70383390D01*
X152871428Y-70383390D02*
X152919047Y-70431009D01*
X152919047Y-70431009D02*
X152966666Y-70526247D01*
X152966666Y-70526247D02*
X152966666Y-70764342D01*
X152966666Y-70764342D02*
X152919047Y-70859580D01*
X152919047Y-70859580D02*
X152871428Y-70907200D01*
X152871428Y-70907200D02*
X152776190Y-70954819D01*
X152776190Y-70954819D02*
X152490476Y-70954819D01*
X152490476Y-70954819D02*
X152395238Y-70907200D01*
X152395238Y-70907200D02*
X152347619Y-70859580D01*
X98398095Y-72804819D02*
X98398095Y-73614342D01*
X98398095Y-73614342D02*
X98445714Y-73709580D01*
X98445714Y-73709580D02*
X98493333Y-73757200D01*
X98493333Y-73757200D02*
X98588571Y-73804819D01*
X98588571Y-73804819D02*
X98779047Y-73804819D01*
X98779047Y-73804819D02*
X98874285Y-73757200D01*
X98874285Y-73757200D02*
X98921904Y-73709580D01*
X98921904Y-73709580D02*
X98969523Y-73614342D01*
X98969523Y-73614342D02*
X98969523Y-72804819D01*
X99398095Y-72900057D02*
X99445714Y-72852438D01*
X99445714Y-72852438D02*
X99540952Y-72804819D01*
X99540952Y-72804819D02*
X99779047Y-72804819D01*
X99779047Y-72804819D02*
X99874285Y-72852438D01*
X99874285Y-72852438D02*
X99921904Y-72900057D01*
X99921904Y-72900057D02*
X99969523Y-72995295D01*
X99969523Y-72995295D02*
X99969523Y-73090533D01*
X99969523Y-73090533D02*
X99921904Y-73233390D01*
X99921904Y-73233390D02*
X99350476Y-73804819D01*
X99350476Y-73804819D02*
X99969523Y-73804819D01*
X187833333Y-109609580D02*
X187785714Y-109657200D01*
X187785714Y-109657200D02*
X187642857Y-109704819D01*
X187642857Y-109704819D02*
X187547619Y-109704819D01*
X187547619Y-109704819D02*
X187404762Y-109657200D01*
X187404762Y-109657200D02*
X187309524Y-109561961D01*
X187309524Y-109561961D02*
X187261905Y-109466723D01*
X187261905Y-109466723D02*
X187214286Y-109276247D01*
X187214286Y-109276247D02*
X187214286Y-109133390D01*
X187214286Y-109133390D02*
X187261905Y-108942914D01*
X187261905Y-108942914D02*
X187309524Y-108847676D01*
X187309524Y-108847676D02*
X187404762Y-108752438D01*
X187404762Y-108752438D02*
X187547619Y-108704819D01*
X187547619Y-108704819D02*
X187642857Y-108704819D01*
X187642857Y-108704819D02*
X187785714Y-108752438D01*
X187785714Y-108752438D02*
X187833333Y-108800057D01*
X188690476Y-109038152D02*
X188690476Y-109704819D01*
X188452381Y-108657200D02*
X188214286Y-109371485D01*
X188214286Y-109371485D02*
X188833333Y-109371485D01*
X184454819Y-78166666D02*
X183978628Y-78499999D01*
X184454819Y-78738094D02*
X183454819Y-78738094D01*
X183454819Y-78738094D02*
X183454819Y-78357142D01*
X183454819Y-78357142D02*
X183502438Y-78261904D01*
X183502438Y-78261904D02*
X183550057Y-78214285D01*
X183550057Y-78214285D02*
X183645295Y-78166666D01*
X183645295Y-78166666D02*
X183788152Y-78166666D01*
X183788152Y-78166666D02*
X183883390Y-78214285D01*
X183883390Y-78214285D02*
X183931009Y-78261904D01*
X183931009Y-78261904D02*
X183978628Y-78357142D01*
X183978628Y-78357142D02*
X183978628Y-78738094D01*
X183454819Y-77833332D02*
X183454819Y-77214285D01*
X183454819Y-77214285D02*
X183835771Y-77547618D01*
X183835771Y-77547618D02*
X183835771Y-77404761D01*
X183835771Y-77404761D02*
X183883390Y-77309523D01*
X183883390Y-77309523D02*
X183931009Y-77261904D01*
X183931009Y-77261904D02*
X184026247Y-77214285D01*
X184026247Y-77214285D02*
X184264342Y-77214285D01*
X184264342Y-77214285D02*
X184359580Y-77261904D01*
X184359580Y-77261904D02*
X184407200Y-77309523D01*
X184407200Y-77309523D02*
X184454819Y-77404761D01*
X184454819Y-77404761D02*
X184454819Y-77690475D01*
X184454819Y-77690475D02*
X184407200Y-77785713D01*
X184407200Y-77785713D02*
X184359580Y-77833332D01*
X197833333Y-118084819D02*
X197500000Y-117608628D01*
X197261905Y-118084819D02*
X197261905Y-117084819D01*
X197261905Y-117084819D02*
X197642857Y-117084819D01*
X197642857Y-117084819D02*
X197738095Y-117132438D01*
X197738095Y-117132438D02*
X197785714Y-117180057D01*
X197785714Y-117180057D02*
X197833333Y-117275295D01*
X197833333Y-117275295D02*
X197833333Y-117418152D01*
X197833333Y-117418152D02*
X197785714Y-117513390D01*
X197785714Y-117513390D02*
X197738095Y-117561009D01*
X197738095Y-117561009D02*
X197642857Y-117608628D01*
X197642857Y-117608628D02*
X197261905Y-117608628D01*
X198166667Y-117084819D02*
X198833333Y-117084819D01*
X198833333Y-117084819D02*
X198404762Y-118084819D01*
X180833333Y-118084819D02*
X180500000Y-117608628D01*
X180261905Y-118084819D02*
X180261905Y-117084819D01*
X180261905Y-117084819D02*
X180642857Y-117084819D01*
X180642857Y-117084819D02*
X180738095Y-117132438D01*
X180738095Y-117132438D02*
X180785714Y-117180057D01*
X180785714Y-117180057D02*
X180833333Y-117275295D01*
X180833333Y-117275295D02*
X180833333Y-117418152D01*
X180833333Y-117418152D02*
X180785714Y-117513390D01*
X180785714Y-117513390D02*
X180738095Y-117561009D01*
X180738095Y-117561009D02*
X180642857Y-117608628D01*
X180642857Y-117608628D02*
X180261905Y-117608628D01*
X181690476Y-117084819D02*
X181500000Y-117084819D01*
X181500000Y-117084819D02*
X181404762Y-117132438D01*
X181404762Y-117132438D02*
X181357143Y-117180057D01*
X181357143Y-117180057D02*
X181261905Y-117322914D01*
X181261905Y-117322914D02*
X181214286Y-117513390D01*
X181214286Y-117513390D02*
X181214286Y-117894342D01*
X181214286Y-117894342D02*
X181261905Y-117989580D01*
X181261905Y-117989580D02*
X181309524Y-118037200D01*
X181309524Y-118037200D02*
X181404762Y-118084819D01*
X181404762Y-118084819D02*
X181595238Y-118084819D01*
X181595238Y-118084819D02*
X181690476Y-118037200D01*
X181690476Y-118037200D02*
X181738095Y-117989580D01*
X181738095Y-117989580D02*
X181785714Y-117894342D01*
X181785714Y-117894342D02*
X181785714Y-117656247D01*
X181785714Y-117656247D02*
X181738095Y-117561009D01*
X181738095Y-117561009D02*
X181690476Y-117513390D01*
X181690476Y-117513390D02*
X181595238Y-117465771D01*
X181595238Y-117465771D02*
X181404762Y-117465771D01*
X181404762Y-117465771D02*
X181309524Y-117513390D01*
X181309524Y-117513390D02*
X181261905Y-117561009D01*
X181261905Y-117561009D02*
X181214286Y-117656247D01*
X148707319Y-103328333D02*
X149421604Y-103328333D01*
X149421604Y-103328333D02*
X149564461Y-103375952D01*
X149564461Y-103375952D02*
X149659700Y-103471190D01*
X149659700Y-103471190D02*
X149707319Y-103614047D01*
X149707319Y-103614047D02*
X149707319Y-103709285D01*
X149707319Y-102804523D02*
X149707319Y-102614047D01*
X149707319Y-102614047D02*
X149659700Y-102518809D01*
X149659700Y-102518809D02*
X149612080Y-102471190D01*
X149612080Y-102471190D02*
X149469223Y-102375952D01*
X149469223Y-102375952D02*
X149278747Y-102328333D01*
X149278747Y-102328333D02*
X148897795Y-102328333D01*
X148897795Y-102328333D02*
X148802557Y-102375952D01*
X148802557Y-102375952D02*
X148754938Y-102423571D01*
X148754938Y-102423571D02*
X148707319Y-102518809D01*
X148707319Y-102518809D02*
X148707319Y-102709285D01*
X148707319Y-102709285D02*
X148754938Y-102804523D01*
X148754938Y-102804523D02*
X148802557Y-102852142D01*
X148802557Y-102852142D02*
X148897795Y-102899761D01*
X148897795Y-102899761D02*
X149135890Y-102899761D01*
X149135890Y-102899761D02*
X149231128Y-102852142D01*
X149231128Y-102852142D02*
X149278747Y-102804523D01*
X149278747Y-102804523D02*
X149326366Y-102709285D01*
X149326366Y-102709285D02*
X149326366Y-102518809D01*
X149326366Y-102518809D02*
X149278747Y-102423571D01*
X149278747Y-102423571D02*
X149231128Y-102375952D01*
X149231128Y-102375952D02*
X149135890Y-102328333D01*
X126046666Y-69954819D02*
X126046666Y-70669104D01*
X126046666Y-70669104D02*
X125999047Y-70811961D01*
X125999047Y-70811961D02*
X125903809Y-70907200D01*
X125903809Y-70907200D02*
X125760952Y-70954819D01*
X125760952Y-70954819D02*
X125665714Y-70954819D01*
X126427619Y-69954819D02*
X127094285Y-69954819D01*
X127094285Y-69954819D02*
X126665714Y-70954819D01*
X205190476Y-69454819D02*
X205190476Y-70169104D01*
X205190476Y-70169104D02*
X205142857Y-70311961D01*
X205142857Y-70311961D02*
X205047619Y-70407200D01*
X205047619Y-70407200D02*
X204904762Y-70454819D01*
X204904762Y-70454819D02*
X204809524Y-70454819D01*
X206190476Y-70454819D02*
X205619048Y-70454819D01*
X205904762Y-70454819D02*
X205904762Y-69454819D01*
X205904762Y-69454819D02*
X205809524Y-69597676D01*
X205809524Y-69597676D02*
X205714286Y-69692914D01*
X205714286Y-69692914D02*
X205619048Y-69740533D01*
X207142857Y-70454819D02*
X206571429Y-70454819D01*
X206857143Y-70454819D02*
X206857143Y-69454819D01*
X206857143Y-69454819D02*
X206761905Y-69597676D01*
X206761905Y-69597676D02*
X206666667Y-69692914D01*
X206666667Y-69692914D02*
X206571429Y-69740533D01*
X196454819Y-78166666D02*
X195978628Y-78499999D01*
X196454819Y-78738094D02*
X195454819Y-78738094D01*
X195454819Y-78738094D02*
X195454819Y-78357142D01*
X195454819Y-78357142D02*
X195502438Y-78261904D01*
X195502438Y-78261904D02*
X195550057Y-78214285D01*
X195550057Y-78214285D02*
X195645295Y-78166666D01*
X195645295Y-78166666D02*
X195788152Y-78166666D01*
X195788152Y-78166666D02*
X195883390Y-78214285D01*
X195883390Y-78214285D02*
X195931009Y-78261904D01*
X195931009Y-78261904D02*
X195978628Y-78357142D01*
X195978628Y-78357142D02*
X195978628Y-78738094D01*
X195550057Y-77785713D02*
X195502438Y-77738094D01*
X195502438Y-77738094D02*
X195454819Y-77642856D01*
X195454819Y-77642856D02*
X195454819Y-77404761D01*
X195454819Y-77404761D02*
X195502438Y-77309523D01*
X195502438Y-77309523D02*
X195550057Y-77261904D01*
X195550057Y-77261904D02*
X195645295Y-77214285D01*
X195645295Y-77214285D02*
X195740533Y-77214285D01*
X195740533Y-77214285D02*
X195883390Y-77261904D01*
X195883390Y-77261904D02*
X196454819Y-77833332D01*
X196454819Y-77833332D02*
X196454819Y-77214285D01*
X142833333Y-151359580D02*
X142785714Y-151407200D01*
X142785714Y-151407200D02*
X142642857Y-151454819D01*
X142642857Y-151454819D02*
X142547619Y-151454819D01*
X142547619Y-151454819D02*
X142404762Y-151407200D01*
X142404762Y-151407200D02*
X142309524Y-151311961D01*
X142309524Y-151311961D02*
X142261905Y-151216723D01*
X142261905Y-151216723D02*
X142214286Y-151026247D01*
X142214286Y-151026247D02*
X142214286Y-150883390D01*
X142214286Y-150883390D02*
X142261905Y-150692914D01*
X142261905Y-150692914D02*
X142309524Y-150597676D01*
X142309524Y-150597676D02*
X142404762Y-150502438D01*
X142404762Y-150502438D02*
X142547619Y-150454819D01*
X142547619Y-150454819D02*
X142642857Y-150454819D01*
X142642857Y-150454819D02*
X142785714Y-150502438D01*
X142785714Y-150502438D02*
X142833333Y-150550057D01*
X143785714Y-151454819D02*
X143214286Y-151454819D01*
X143500000Y-151454819D02*
X143500000Y-150454819D01*
X143500000Y-150454819D02*
X143404762Y-150597676D01*
X143404762Y-150597676D02*
X143309524Y-150692914D01*
X143309524Y-150692914D02*
X143214286Y-150740533D01*
X167233095Y-92294819D02*
X167233095Y-93104342D01*
X167233095Y-93104342D02*
X167280714Y-93199580D01*
X167280714Y-93199580D02*
X167328333Y-93247200D01*
X167328333Y-93247200D02*
X167423571Y-93294819D01*
X167423571Y-93294819D02*
X167614047Y-93294819D01*
X167614047Y-93294819D02*
X167709285Y-93247200D01*
X167709285Y-93247200D02*
X167756904Y-93199580D01*
X167756904Y-93199580D02*
X167804523Y-93104342D01*
X167804523Y-93104342D02*
X167804523Y-92294819D01*
X168709285Y-92628152D02*
X168709285Y-93294819D01*
X168471190Y-92247200D02*
X168233095Y-92961485D01*
X168233095Y-92961485D02*
X168852142Y-92961485D01*
X189126666Y-129454819D02*
X189126666Y-130169104D01*
X189126666Y-130169104D02*
X189079047Y-130311961D01*
X189079047Y-130311961D02*
X188983809Y-130407200D01*
X188983809Y-130407200D02*
X188840952Y-130454819D01*
X188840952Y-130454819D02*
X188745714Y-130454819D01*
X190031428Y-129454819D02*
X189840952Y-129454819D01*
X189840952Y-129454819D02*
X189745714Y-129502438D01*
X189745714Y-129502438D02*
X189698095Y-129550057D01*
X189698095Y-129550057D02*
X189602857Y-129692914D01*
X189602857Y-129692914D02*
X189555238Y-129883390D01*
X189555238Y-129883390D02*
X189555238Y-130264342D01*
X189555238Y-130264342D02*
X189602857Y-130359580D01*
X189602857Y-130359580D02*
X189650476Y-130407200D01*
X189650476Y-130407200D02*
X189745714Y-130454819D01*
X189745714Y-130454819D02*
X189936190Y-130454819D01*
X189936190Y-130454819D02*
X190031428Y-130407200D01*
X190031428Y-130407200D02*
X190079047Y-130359580D01*
X190079047Y-130359580D02*
X190126666Y-130264342D01*
X190126666Y-130264342D02*
X190126666Y-130026247D01*
X190126666Y-130026247D02*
X190079047Y-129931009D01*
X190079047Y-129931009D02*
X190031428Y-129883390D01*
X190031428Y-129883390D02*
X189936190Y-129835771D01*
X189936190Y-129835771D02*
X189745714Y-129835771D01*
X189745714Y-129835771D02*
X189650476Y-129883390D01*
X189650476Y-129883390D02*
X189602857Y-129931009D01*
X189602857Y-129931009D02*
X189555238Y-130026247D01*
D12*
X115005714Y-139997419D02*
X115005714Y-138997419D01*
X115005714Y-138997419D02*
X115386666Y-138997419D01*
X115386666Y-138997419D02*
X115481904Y-139045038D01*
X115481904Y-139045038D02*
X115529523Y-139092657D01*
X115529523Y-139092657D02*
X115577142Y-139187895D01*
X115577142Y-139187895D02*
X115577142Y-139330752D01*
X115577142Y-139330752D02*
X115529523Y-139425990D01*
X115529523Y-139425990D02*
X115481904Y-139473609D01*
X115481904Y-139473609D02*
X115386666Y-139521228D01*
X115386666Y-139521228D02*
X115005714Y-139521228D01*
X115958095Y-139949800D02*
X116100952Y-139997419D01*
X116100952Y-139997419D02*
X116339047Y-139997419D01*
X116339047Y-139997419D02*
X116434285Y-139949800D01*
X116434285Y-139949800D02*
X116481904Y-139902180D01*
X116481904Y-139902180D02*
X116529523Y-139806942D01*
X116529523Y-139806942D02*
X116529523Y-139711704D01*
X116529523Y-139711704D02*
X116481904Y-139616466D01*
X116481904Y-139616466D02*
X116434285Y-139568847D01*
X116434285Y-139568847D02*
X116339047Y-139521228D01*
X116339047Y-139521228D02*
X116148571Y-139473609D01*
X116148571Y-139473609D02*
X116053333Y-139425990D01*
X116053333Y-139425990D02*
X116005714Y-139378371D01*
X116005714Y-139378371D02*
X115958095Y-139283133D01*
X115958095Y-139283133D02*
X115958095Y-139187895D01*
X115958095Y-139187895D02*
X116005714Y-139092657D01*
X116005714Y-139092657D02*
X116053333Y-139045038D01*
X116053333Y-139045038D02*
X116148571Y-138997419D01*
X116148571Y-138997419D02*
X116386666Y-138997419D01*
X116386666Y-138997419D02*
X116529523Y-139045038D01*
X117481904Y-139997419D02*
X116910476Y-139997419D01*
X117196190Y-139997419D02*
X117196190Y-138997419D01*
X117196190Y-138997419D02*
X117100952Y-139140276D01*
X117100952Y-139140276D02*
X117005714Y-139235514D01*
X117005714Y-139235514D02*
X116910476Y-139283133D01*
D11*
X155859580Y-97666666D02*
X155907200Y-97714285D01*
X155907200Y-97714285D02*
X155954819Y-97857142D01*
X155954819Y-97857142D02*
X155954819Y-97952380D01*
X155954819Y-97952380D02*
X155907200Y-98095237D01*
X155907200Y-98095237D02*
X155811961Y-98190475D01*
X155811961Y-98190475D02*
X155716723Y-98238094D01*
X155716723Y-98238094D02*
X155526247Y-98285713D01*
X155526247Y-98285713D02*
X155383390Y-98285713D01*
X155383390Y-98285713D02*
X155192914Y-98238094D01*
X155192914Y-98238094D02*
X155097676Y-98190475D01*
X155097676Y-98190475D02*
X155002438Y-98095237D01*
X155002438Y-98095237D02*
X154954819Y-97952380D01*
X154954819Y-97952380D02*
X154954819Y-97857142D01*
X154954819Y-97857142D02*
X155002438Y-97714285D01*
X155002438Y-97714285D02*
X155050057Y-97666666D01*
X154954819Y-97333332D02*
X154954819Y-96714285D01*
X154954819Y-96714285D02*
X155335771Y-97047618D01*
X155335771Y-97047618D02*
X155335771Y-96904761D01*
X155335771Y-96904761D02*
X155383390Y-96809523D01*
X155383390Y-96809523D02*
X155431009Y-96761904D01*
X155431009Y-96761904D02*
X155526247Y-96714285D01*
X155526247Y-96714285D02*
X155764342Y-96714285D01*
X155764342Y-96714285D02*
X155859580Y-96761904D01*
X155859580Y-96761904D02*
X155907200Y-96809523D01*
X155907200Y-96809523D02*
X155954819Y-96904761D01*
X155954819Y-96904761D02*
X155954819Y-97190475D01*
X155954819Y-97190475D02*
X155907200Y-97285713D01*
X155907200Y-97285713D02*
X155859580Y-97333332D01*
X155144819Y-78166666D02*
X154668628Y-78499999D01*
X155144819Y-78738094D02*
X154144819Y-78738094D01*
X154144819Y-78738094D02*
X154144819Y-78357142D01*
X154144819Y-78357142D02*
X154192438Y-78261904D01*
X154192438Y-78261904D02*
X154240057Y-78214285D01*
X154240057Y-78214285D02*
X154335295Y-78166666D01*
X154335295Y-78166666D02*
X154478152Y-78166666D01*
X154478152Y-78166666D02*
X154573390Y-78214285D01*
X154573390Y-78214285D02*
X154621009Y-78261904D01*
X154621009Y-78261904D02*
X154668628Y-78357142D01*
X154668628Y-78357142D02*
X154668628Y-78738094D01*
X154478152Y-77309523D02*
X155144819Y-77309523D01*
X154097200Y-77547618D02*
X154811485Y-77785713D01*
X154811485Y-77785713D02*
X154811485Y-77166666D01*
X89705819Y-138643333D02*
X90420104Y-138643333D01*
X90420104Y-138643333D02*
X90562961Y-138690952D01*
X90562961Y-138690952D02*
X90658200Y-138786190D01*
X90658200Y-138786190D02*
X90705819Y-138929047D01*
X90705819Y-138929047D02*
X90705819Y-139024285D01*
X90705819Y-137643333D02*
X90705819Y-138214761D01*
X90705819Y-137929047D02*
X89705819Y-137929047D01*
X89705819Y-137929047D02*
X89848676Y-138024285D01*
X89848676Y-138024285D02*
X89943914Y-138119523D01*
X89943914Y-138119523D02*
X89991533Y-138214761D01*
X146750057Y-77475238D02*
X146702438Y-77570476D01*
X146702438Y-77570476D02*
X146607200Y-77665714D01*
X146607200Y-77665714D02*
X146464342Y-77808571D01*
X146464342Y-77808571D02*
X146416723Y-77903809D01*
X146416723Y-77903809D02*
X146416723Y-77999047D01*
X146654819Y-77951428D02*
X146607200Y-78046666D01*
X146607200Y-78046666D02*
X146511961Y-78141904D01*
X146511961Y-78141904D02*
X146321485Y-78189523D01*
X146321485Y-78189523D02*
X145988152Y-78189523D01*
X145988152Y-78189523D02*
X145797676Y-78141904D01*
X145797676Y-78141904D02*
X145702438Y-78046666D01*
X145702438Y-78046666D02*
X145654819Y-77951428D01*
X145654819Y-77951428D02*
X145654819Y-77760952D01*
X145654819Y-77760952D02*
X145702438Y-77665714D01*
X145702438Y-77665714D02*
X145797676Y-77570476D01*
X145797676Y-77570476D02*
X145988152Y-77522857D01*
X145988152Y-77522857D02*
X146321485Y-77522857D01*
X146321485Y-77522857D02*
X146511961Y-77570476D01*
X146511961Y-77570476D02*
X146607200Y-77665714D01*
X146607200Y-77665714D02*
X146654819Y-77760952D01*
X146654819Y-77760952D02*
X146654819Y-77951428D01*
X145750057Y-77141904D02*
X145702438Y-77094285D01*
X145702438Y-77094285D02*
X145654819Y-76999047D01*
X145654819Y-76999047D02*
X145654819Y-76760952D01*
X145654819Y-76760952D02*
X145702438Y-76665714D01*
X145702438Y-76665714D02*
X145750057Y-76618095D01*
X145750057Y-76618095D02*
X145845295Y-76570476D01*
X145845295Y-76570476D02*
X145940533Y-76570476D01*
X145940533Y-76570476D02*
X146083390Y-76618095D01*
X146083390Y-76618095D02*
X146654819Y-77189523D01*
X146654819Y-77189523D02*
X146654819Y-76570476D01*
X134169819Y-92025720D02*
X134979342Y-92025720D01*
X134979342Y-92025720D02*
X135074580Y-91978101D01*
X135074580Y-91978101D02*
X135122200Y-91930482D01*
X135122200Y-91930482D02*
X135169819Y-91835244D01*
X135169819Y-91835244D02*
X135169819Y-91644768D01*
X135169819Y-91644768D02*
X135122200Y-91549530D01*
X135122200Y-91549530D02*
X135074580Y-91501911D01*
X135074580Y-91501911D02*
X134979342Y-91454292D01*
X134979342Y-91454292D02*
X134169819Y-91454292D01*
X135169819Y-90454292D02*
X135169819Y-91025720D01*
X135169819Y-90740006D02*
X134169819Y-90740006D01*
X134169819Y-90740006D02*
X134312676Y-90835244D01*
X134312676Y-90835244D02*
X134407914Y-90930482D01*
X134407914Y-90930482D02*
X134455533Y-91025720D01*
X176750057Y-77315238D02*
X176702438Y-77410476D01*
X176702438Y-77410476D02*
X176607200Y-77505714D01*
X176607200Y-77505714D02*
X176464342Y-77648571D01*
X176464342Y-77648571D02*
X176416723Y-77743809D01*
X176416723Y-77743809D02*
X176416723Y-77839047D01*
X176654819Y-77791428D02*
X176607200Y-77886666D01*
X176607200Y-77886666D02*
X176511961Y-77981904D01*
X176511961Y-77981904D02*
X176321485Y-78029523D01*
X176321485Y-78029523D02*
X175988152Y-78029523D01*
X175988152Y-78029523D02*
X175797676Y-77981904D01*
X175797676Y-77981904D02*
X175702438Y-77886666D01*
X175702438Y-77886666D02*
X175654819Y-77791428D01*
X175654819Y-77791428D02*
X175654819Y-77600952D01*
X175654819Y-77600952D02*
X175702438Y-77505714D01*
X175702438Y-77505714D02*
X175797676Y-77410476D01*
X175797676Y-77410476D02*
X175988152Y-77362857D01*
X175988152Y-77362857D02*
X176321485Y-77362857D01*
X176321485Y-77362857D02*
X176511961Y-77410476D01*
X176511961Y-77410476D02*
X176607200Y-77505714D01*
X176607200Y-77505714D02*
X176654819Y-77600952D01*
X176654819Y-77600952D02*
X176654819Y-77791428D01*
X176654819Y-76410476D02*
X176654819Y-76981904D01*
X176654819Y-76696190D02*
X175654819Y-76696190D01*
X175654819Y-76696190D02*
X175797676Y-76791428D01*
X175797676Y-76791428D02*
X175892914Y-76886666D01*
X175892914Y-76886666D02*
X175940533Y-76981904D01*
X162238095Y-137454819D02*
X162238095Y-138264342D01*
X162238095Y-138264342D02*
X162285714Y-138359580D01*
X162285714Y-138359580D02*
X162333333Y-138407200D01*
X162333333Y-138407200D02*
X162428571Y-138454819D01*
X162428571Y-138454819D02*
X162619047Y-138454819D01*
X162619047Y-138454819D02*
X162714285Y-138407200D01*
X162714285Y-138407200D02*
X162761904Y-138359580D01*
X162761904Y-138359580D02*
X162809523Y-138264342D01*
X162809523Y-138264342D02*
X162809523Y-137454819D01*
X163190476Y-137454819D02*
X163809523Y-137454819D01*
X163809523Y-137454819D02*
X163476190Y-137835771D01*
X163476190Y-137835771D02*
X163619047Y-137835771D01*
X163619047Y-137835771D02*
X163714285Y-137883390D01*
X163714285Y-137883390D02*
X163761904Y-137931009D01*
X163761904Y-137931009D02*
X163809523Y-138026247D01*
X163809523Y-138026247D02*
X163809523Y-138264342D01*
X163809523Y-138264342D02*
X163761904Y-138359580D01*
X163761904Y-138359580D02*
X163714285Y-138407200D01*
X163714285Y-138407200D02*
X163619047Y-138454819D01*
X163619047Y-138454819D02*
X163333333Y-138454819D01*
X163333333Y-138454819D02*
X163238095Y-138407200D01*
X163238095Y-138407200D02*
X163190476Y-138359580D01*
D13*
%TO.C,J5*%
X202747500Y-71720000D02*
X210987500Y-71720000D01*
X202747500Y-92280000D02*
X202747500Y-71720000D01*
X204867500Y-92280000D02*
X204867500Y-71720000D01*
X208867500Y-92280000D02*
X208867500Y-71720000D01*
X210987500Y-71720000D02*
X210987500Y-89320000D01*
X210987500Y-89920000D02*
X210987500Y-92280000D01*
X210987500Y-92280000D02*
X202747500Y-92280000D01*
X211597500Y-90060000D02*
X210987500Y-89620000D01*
X211597500Y-89180000D01*
X211597500Y-90060000D01*
G36*
X211597500Y-90060000D02*
G01*
X210987500Y-89620000D01*
X211597500Y-89180000D01*
X211597500Y-90060000D01*
G37*
%TO.C,J12*%
X190880000Y-97340000D02*
X199120000Y-97340000D01*
X190880000Y-107740000D02*
X190880000Y-97340000D01*
X193000000Y-107740000D02*
X193000000Y-97340000D01*
X197000000Y-107740000D02*
X197000000Y-97340000D01*
X199120000Y-97340000D02*
X199120000Y-104780000D01*
X199120000Y-105380000D02*
X199120000Y-107740000D01*
X199120000Y-107740000D02*
X190880000Y-107740000D01*
X199730000Y-105520000D02*
X199120000Y-105080000D01*
X199730000Y-104640000D01*
X199730000Y-105520000D01*
G36*
X199730000Y-105520000D02*
G01*
X199120000Y-105080000D01*
X199730000Y-104640000D01*
X199730000Y-105520000D01*
G37*
%TO.C,R5*%
X163060000Y-73960000D02*
X163060000Y-74730000D01*
X163060000Y-82040000D02*
X163060000Y-81270000D01*
X161690000Y-81270000D02*
X164430000Y-81270000D01*
X164430000Y-74730000D01*
X161690000Y-74730000D01*
X161690000Y-81270000D01*
%TO.C,C5*%
X198195225Y-111525000D02*
X198695225Y-111525000D01*
X198445225Y-111275000D02*
X198445225Y-111775000D01*
X201000000Y-110420000D02*
X201000000Y-111960000D01*
X201000000Y-114040000D02*
X201000000Y-115580000D01*
X201040000Y-110420000D02*
X201040000Y-111960000D01*
X201040000Y-114040000D02*
X201040000Y-115580000D01*
X201080000Y-110421000D02*
X201080000Y-111960000D01*
X201080000Y-114040000D02*
X201080000Y-115579000D01*
X201120000Y-110423000D02*
X201120000Y-111960000D01*
X201120000Y-114040000D02*
X201120000Y-115577000D01*
X201160000Y-110425000D02*
X201160000Y-111960000D01*
X201160000Y-114040000D02*
X201160000Y-115575000D01*
X201200000Y-110428000D02*
X201200000Y-111960000D01*
X201200000Y-114040000D02*
X201200000Y-115572000D01*
X201240000Y-110431000D02*
X201240000Y-111960000D01*
X201240000Y-114040000D02*
X201240000Y-115569000D01*
X201280000Y-110435000D02*
X201280000Y-111960000D01*
X201280000Y-114040000D02*
X201280000Y-115565000D01*
X201320000Y-110440000D02*
X201320000Y-111960000D01*
X201320000Y-114040000D02*
X201320000Y-115560000D01*
X201360000Y-110445000D02*
X201360000Y-111960000D01*
X201360000Y-114040000D02*
X201360000Y-115555000D01*
X201400000Y-110451000D02*
X201400000Y-111960000D01*
X201400000Y-114040000D02*
X201400000Y-115549000D01*
X201440000Y-110457000D02*
X201440000Y-111960000D01*
X201440000Y-114040000D02*
X201440000Y-115543000D01*
X201480000Y-110464000D02*
X201480000Y-111960000D01*
X201480000Y-114040000D02*
X201480000Y-115536000D01*
X201520000Y-110472000D02*
X201520000Y-111960000D01*
X201520000Y-114040000D02*
X201520000Y-115528000D01*
X201560000Y-110481000D02*
X201560000Y-111960000D01*
X201560000Y-114040000D02*
X201560000Y-115519000D01*
X201600000Y-110490000D02*
X201600000Y-111960000D01*
X201600000Y-114040000D02*
X201600000Y-115510000D01*
X201640000Y-110499000D02*
X201640000Y-111960000D01*
X201640000Y-114040000D02*
X201640000Y-115501000D01*
X201680000Y-110510000D02*
X201680000Y-111960000D01*
X201680000Y-114040000D02*
X201680000Y-115490000D01*
X201720000Y-110521000D02*
X201720000Y-111960000D01*
X201720000Y-114040000D02*
X201720000Y-115479000D01*
X201760000Y-110533000D02*
X201760000Y-111960000D01*
X201760000Y-114040000D02*
X201760000Y-115467000D01*
X201800000Y-110545000D02*
X201800000Y-111960000D01*
X201800000Y-114040000D02*
X201800000Y-115455000D01*
X201840000Y-110558000D02*
X201840000Y-111960000D01*
X201840000Y-114040000D02*
X201840000Y-115442000D01*
X201880000Y-110572000D02*
X201880000Y-111960000D01*
X201880000Y-114040000D02*
X201880000Y-115428000D01*
X201920000Y-110587000D02*
X201920000Y-111960000D01*
X201920000Y-114040000D02*
X201920000Y-115413000D01*
X201960000Y-110602000D02*
X201960000Y-111960000D01*
X201960000Y-114040000D02*
X201960000Y-115398000D01*
X202000000Y-110618000D02*
X202000000Y-111960000D01*
X202000000Y-114040000D02*
X202000000Y-115382000D01*
X202040000Y-110635000D02*
X202040000Y-111960000D01*
X202040000Y-114040000D02*
X202040000Y-115365000D01*
X202080000Y-110653000D02*
X202080000Y-111960000D01*
X202080000Y-114040000D02*
X202080000Y-115347000D01*
X202120000Y-110671000D02*
X202120000Y-111960000D01*
X202120000Y-114040000D02*
X202120000Y-115329000D01*
X202160000Y-110691000D02*
X202160000Y-111960000D01*
X202160000Y-114040000D02*
X202160000Y-115309000D01*
X202200000Y-110711000D02*
X202200000Y-111960000D01*
X202200000Y-114040000D02*
X202200000Y-115289000D01*
X202240000Y-110732000D02*
X202240000Y-111960000D01*
X202240000Y-114040000D02*
X202240000Y-115268000D01*
X202280000Y-110754000D02*
X202280000Y-111960000D01*
X202280000Y-114040000D02*
X202280000Y-115246000D01*
X202320000Y-110777000D02*
X202320000Y-111960000D01*
X202320000Y-114040000D02*
X202320000Y-115223000D01*
X202360000Y-110801000D02*
X202360000Y-111960000D01*
X202360000Y-114040000D02*
X202360000Y-115199000D01*
X202400000Y-110825000D02*
X202400000Y-111960000D01*
X202400000Y-114040000D02*
X202400000Y-115175000D01*
X202440000Y-110851000D02*
X202440000Y-111960000D01*
X202440000Y-114040000D02*
X202440000Y-115149000D01*
X202480000Y-110878000D02*
X202480000Y-111960000D01*
X202480000Y-114040000D02*
X202480000Y-115122000D01*
X202520000Y-110906000D02*
X202520000Y-111960000D01*
X202520000Y-114040000D02*
X202520000Y-115094000D01*
X202560000Y-110935000D02*
X202560000Y-111960000D01*
X202560000Y-114040000D02*
X202560000Y-115065000D01*
X202600000Y-110965000D02*
X202600000Y-111960000D01*
X202600000Y-114040000D02*
X202600000Y-115035000D01*
X202640000Y-110997000D02*
X202640000Y-111960000D01*
X202640000Y-114040000D02*
X202640000Y-115003000D01*
X202680000Y-111030000D02*
X202680000Y-111960000D01*
X202680000Y-114040000D02*
X202680000Y-114970000D01*
X202720000Y-111064000D02*
X202720000Y-111960000D01*
X202720000Y-114040000D02*
X202720000Y-114936000D01*
X202760000Y-111099000D02*
X202760000Y-111960000D01*
X202760000Y-114040000D02*
X202760000Y-114901000D01*
X202800000Y-111136000D02*
X202800000Y-111960000D01*
X202800000Y-114040000D02*
X202800000Y-114864000D01*
X202840000Y-111175000D02*
X202840000Y-111960000D01*
X202840000Y-114040000D02*
X202840000Y-114825000D01*
X202880000Y-111215000D02*
X202880000Y-111960000D01*
X202880000Y-114040000D02*
X202880000Y-114785000D01*
X202920000Y-111257000D02*
X202920000Y-111960000D01*
X202920000Y-114040000D02*
X202920000Y-114743000D01*
X202960000Y-111301000D02*
X202960000Y-111960000D01*
X202960000Y-114040000D02*
X202960000Y-114699000D01*
X203000000Y-111348000D02*
X203000000Y-111960000D01*
X203000000Y-114040000D02*
X203000000Y-114652000D01*
X203040000Y-111396000D02*
X203040000Y-114604000D01*
X203080000Y-111447000D02*
X203080000Y-114553000D01*
X203120000Y-111501000D02*
X203120000Y-114499000D01*
X203160000Y-111557000D02*
X203160000Y-114443000D01*
X203200000Y-111617000D02*
X203200000Y-114383000D01*
X203240000Y-111681000D02*
X203240000Y-114319000D01*
X203280000Y-111749000D02*
X203280000Y-114251000D01*
X203320000Y-111823000D02*
X203320000Y-114177000D01*
X203360000Y-111902000D02*
X203360000Y-114098000D01*
X203400000Y-111989000D02*
X203400000Y-114011000D01*
X203440000Y-112086000D02*
X203440000Y-113914000D01*
X203480000Y-112195000D02*
X203480000Y-113805000D01*
X203520000Y-112323000D02*
X203520000Y-113677000D01*
X203560000Y-112483000D02*
X203560000Y-113517000D01*
X203600000Y-112717000D02*
X203600000Y-113283000D01*
X203620000Y-113000000D02*
G75*
G02*
X198380000Y-113000000I-2620000J0D01*
G01*
X198380000Y-113000000D02*
G75*
G02*
X203620000Y-113000000I2620000J0D01*
G01*
%TO.C,J10*%
X179180000Y-142880000D02*
X196780000Y-142880000D01*
X179180000Y-151120000D02*
X179180000Y-142880000D01*
X197380000Y-142880000D02*
X199740000Y-142880000D01*
X199740000Y-142880000D02*
X199740000Y-151120000D01*
X199740000Y-145000000D02*
X179180000Y-145000000D01*
X199740000Y-149000000D02*
X179180000Y-149000000D01*
X199740000Y-151120000D02*
X179180000Y-151120000D01*
X197080000Y-142880000D02*
X196640000Y-142270000D01*
X197520000Y-142270000D01*
X197080000Y-142880000D01*
G36*
X197080000Y-142880000D02*
G01*
X196640000Y-142270000D01*
X197520000Y-142270000D01*
X197080000Y-142880000D01*
G37*
%TO.C,J4*%
X90050000Y-120670000D02*
X90050000Y-123330000D01*
X102810000Y-120670000D02*
X90050000Y-120670000D01*
X102810000Y-120670000D02*
X102810000Y-123330000D01*
X102810000Y-123330000D02*
X90050000Y-123330000D01*
X105410000Y-122000000D02*
X105410000Y-123330000D01*
X105410000Y-123330000D02*
X104080000Y-123330000D01*
%TO.C,D2*%
X141300000Y-74100000D02*
X141300000Y-75120000D01*
X141300000Y-81580000D02*
X141300000Y-80560000D01*
X142770000Y-75900000D02*
X139830000Y-75900000D01*
X142770000Y-76020000D02*
X139830000Y-76020000D01*
X142770000Y-76140000D02*
X139830000Y-76140000D01*
X142770000Y-75120000D02*
X139830000Y-75120000D01*
X139830000Y-80560000D01*
X142770000Y-80560000D01*
X142770000Y-75120000D01*
%TO.C,J2*%
X174400000Y-60800000D02*
X194960000Y-60800000D01*
X174400000Y-62920000D02*
X194960000Y-62920000D01*
X174400000Y-66920000D02*
X194960000Y-66920000D01*
X174400000Y-69040000D02*
X174400000Y-60800000D01*
X176760000Y-69040000D02*
X174400000Y-69040000D01*
X194960000Y-60800000D02*
X194960000Y-69040000D01*
X194960000Y-69040000D02*
X177360000Y-69040000D01*
X177500000Y-69650000D02*
X176620000Y-69650000D01*
X177060000Y-69040000D01*
X177500000Y-69650000D01*
G36*
X177500000Y-69650000D02*
G01*
X176620000Y-69650000D01*
X177060000Y-69040000D01*
X177500000Y-69650000D01*
G37*
%TO.C,D1*%
X171300000Y-74100000D02*
X171300000Y-75120000D01*
X171300000Y-81580000D02*
X171300000Y-80560000D01*
X172770000Y-75900000D02*
X169830000Y-75900000D01*
X172770000Y-76020000D02*
X169830000Y-76020000D01*
X172770000Y-76140000D02*
X169830000Y-76140000D01*
X172770000Y-75120000D02*
X169830000Y-75120000D01*
X169830000Y-80560000D01*
X172770000Y-80560000D01*
X172770000Y-75120000D01*
%TO.C,C2*%
X138920000Y-134210000D02*
X147080000Y-134210000D01*
X138920000Y-134250000D02*
X147080000Y-134250000D01*
X138921000Y-134170000D02*
X147079000Y-134170000D01*
X138922000Y-134130000D02*
X147078000Y-134130000D01*
X138923000Y-134090000D02*
X147077000Y-134090000D01*
X138925000Y-134050000D02*
X147075000Y-134050000D01*
X138927000Y-134010000D02*
X147073000Y-134010000D01*
X138930000Y-133970000D02*
X147070000Y-133970000D01*
X138932000Y-133930000D02*
X147068000Y-133930000D01*
X138936000Y-133890000D02*
X147064000Y-133890000D01*
X138939000Y-133850000D02*
X147061000Y-133850000D01*
X138944000Y-133810000D02*
X147056000Y-133810000D01*
X138948000Y-133770000D02*
X147052000Y-133770000D01*
X138953000Y-133730000D02*
X147047000Y-133730000D01*
X138958000Y-133690000D02*
X147042000Y-133690000D01*
X138964000Y-133650000D02*
X147036000Y-133650000D01*
X138970000Y-133610000D02*
X147030000Y-133610000D01*
X138977000Y-133570000D02*
X147023000Y-133570000D01*
X138983000Y-133530000D02*
X141960000Y-133530000D01*
X138991000Y-133490000D02*
X141960000Y-133490000D01*
X138998000Y-133450000D02*
X141960000Y-133450000D01*
X139007000Y-133410000D02*
X141960000Y-133410000D01*
X139015000Y-133370000D02*
X141960000Y-133370000D01*
X139024000Y-133330000D02*
X141960000Y-133330000D01*
X139033000Y-133290000D02*
X141960000Y-133290000D01*
X139043000Y-133250000D02*
X141960000Y-133250000D01*
X139053000Y-133210000D02*
X141960000Y-133210000D01*
X139064000Y-133170000D02*
X141960000Y-133170000D01*
X139075000Y-133130000D02*
X141960000Y-133130000D01*
X139087000Y-133090000D02*
X141960000Y-133090000D01*
X139099000Y-133050000D02*
X141960000Y-133050000D01*
X139111000Y-133010000D02*
X141960000Y-133010000D01*
X139124000Y-132970000D02*
X141960000Y-132970000D01*
X139137000Y-132930000D02*
X141960000Y-132930000D01*
X139151000Y-132890000D02*
X141960000Y-132890000D01*
X139165000Y-132850000D02*
X141960000Y-132850000D01*
X139180000Y-132810000D02*
X141960000Y-132810000D01*
X139195000Y-132770000D02*
X141960000Y-132770000D01*
X139211000Y-132730000D02*
X141960000Y-132730000D01*
X139227000Y-132690000D02*
X141960000Y-132690000D01*
X139243000Y-132650000D02*
X141960000Y-132650000D01*
X139260000Y-132610000D02*
X141960000Y-132610000D01*
X139278000Y-132570000D02*
X141960000Y-132570000D01*
X139296000Y-132530000D02*
X141960000Y-132530000D01*
X139315000Y-132490000D02*
X141960000Y-132490000D01*
X139334000Y-132450000D02*
X141960000Y-132450000D01*
X139354000Y-132410000D02*
X141960000Y-132410000D01*
X139374000Y-132370000D02*
X141960000Y-132370000D01*
X139395000Y-132330000D02*
X141960000Y-132330000D01*
X139416000Y-132290000D02*
X141960000Y-132290000D01*
X139438000Y-132250000D02*
X141960000Y-132250000D01*
X139461000Y-132210000D02*
X141960000Y-132210000D01*
X139484000Y-132170000D02*
X141960000Y-132170000D01*
X139507000Y-132130000D02*
X141960000Y-132130000D01*
X139532000Y-132090000D02*
X141960000Y-132090000D01*
X139557000Y-132050000D02*
X141960000Y-132050000D01*
X139582000Y-132010000D02*
X141960000Y-132010000D01*
X139608000Y-131970000D02*
X141960000Y-131970000D01*
X139635000Y-131930000D02*
X141960000Y-131930000D01*
X139663000Y-131890000D02*
X141960000Y-131890000D01*
X139691000Y-131850000D02*
X141960000Y-131850000D01*
X139720000Y-131810000D02*
X141960000Y-131810000D01*
X139750000Y-131770000D02*
X141960000Y-131770000D01*
X139781000Y-131730000D02*
X141960000Y-131730000D01*
X139812000Y-131690000D02*
X141960000Y-131690000D01*
X139844000Y-131650000D02*
X141960000Y-131650000D01*
X139877000Y-131610000D02*
X141960000Y-131610000D01*
X139911000Y-131570000D02*
X141960000Y-131570000D01*
X139945000Y-131530000D02*
X141960000Y-131530000D01*
X139981000Y-131490000D02*
X141960000Y-131490000D01*
X140018000Y-131450000D02*
X145982000Y-131450000D01*
X140055000Y-131410000D02*
X145945000Y-131410000D01*
X140094000Y-131370000D02*
X145906000Y-131370000D01*
X140133000Y-131330000D02*
X145867000Y-131330000D01*
X140174000Y-131290000D02*
X145826000Y-131290000D01*
X140216000Y-131250000D02*
X145784000Y-131250000D01*
X140259000Y-131210000D02*
X145741000Y-131210000D01*
X140285000Y-138259698D02*
X141085000Y-138259698D01*
X140304000Y-131170000D02*
X145696000Y-131170000D01*
X140349000Y-131130000D02*
X145651000Y-131130000D01*
X140396000Y-131090000D02*
X145604000Y-131090000D01*
X140445000Y-131050000D02*
X145555000Y-131050000D01*
X140495000Y-131010000D02*
X145505000Y-131010000D01*
X140547000Y-130970000D02*
X145453000Y-130970000D01*
X140600000Y-130930000D02*
X145400000Y-130930000D01*
X140656000Y-130890000D02*
X145344000Y-130890000D01*
X140685000Y-138659698D02*
X140685000Y-137859698D01*
X140713000Y-130850000D02*
X145287000Y-130850000D01*
X140773000Y-130810000D02*
X145227000Y-130810000D01*
X140835000Y-130770000D02*
X145165000Y-130770000D01*
X140899000Y-130730000D02*
X145101000Y-130730000D01*
X140966000Y-130690000D02*
X145034000Y-130690000D01*
X141036000Y-130650000D02*
X144964000Y-130650000D01*
X141110000Y-130610000D02*
X144890000Y-130610000D01*
X141187000Y-130570000D02*
X144813000Y-130570000D01*
X141269000Y-130530000D02*
X144731000Y-130530000D01*
X141356000Y-130490000D02*
X144644000Y-130490000D01*
X141448000Y-130450000D02*
X144552000Y-130450000D01*
X141547000Y-130410000D02*
X144453000Y-130410000D01*
X141654000Y-130370000D02*
X144346000Y-130370000D01*
X141772000Y-130330000D02*
X144228000Y-130330000D01*
X141903000Y-130290000D02*
X144097000Y-130290000D01*
X142053000Y-130250000D02*
X143947000Y-130250000D01*
X142232000Y-130210000D02*
X143768000Y-130210000D01*
X142467000Y-130170000D02*
X143533000Y-130170000D01*
X144040000Y-131490000D02*
X146019000Y-131490000D01*
X144040000Y-131530000D02*
X146055000Y-131530000D01*
X144040000Y-131570000D02*
X146089000Y-131570000D01*
X144040000Y-131610000D02*
X146123000Y-131610000D01*
X144040000Y-131650000D02*
X146156000Y-131650000D01*
X144040000Y-131690000D02*
X146188000Y-131690000D01*
X144040000Y-131730000D02*
X146219000Y-131730000D01*
X144040000Y-131770000D02*
X146250000Y-131770000D01*
X144040000Y-131810000D02*
X146280000Y-131810000D01*
X144040000Y-131850000D02*
X146309000Y-131850000D01*
X144040000Y-131890000D02*
X146337000Y-131890000D01*
X144040000Y-131930000D02*
X146365000Y-131930000D01*
X144040000Y-131970000D02*
X146392000Y-131970000D01*
X144040000Y-132010000D02*
X146418000Y-132010000D01*
X144040000Y-132050000D02*
X146443000Y-132050000D01*
X144040000Y-132090000D02*
X146468000Y-132090000D01*
X144040000Y-132130000D02*
X146493000Y-132130000D01*
X144040000Y-132170000D02*
X146516000Y-132170000D01*
X144040000Y-132210000D02*
X146539000Y-132210000D01*
X144040000Y-132250000D02*
X146562000Y-132250000D01*
X144040000Y-132290000D02*
X146584000Y-132290000D01*
X144040000Y-132330000D02*
X146605000Y-132330000D01*
X144040000Y-132370000D02*
X146626000Y-132370000D01*
X144040000Y-132410000D02*
X146646000Y-132410000D01*
X144040000Y-132450000D02*
X146666000Y-132450000D01*
X144040000Y-132490000D02*
X146685000Y-132490000D01*
X144040000Y-132530000D02*
X146704000Y-132530000D01*
X144040000Y-132570000D02*
X146722000Y-132570000D01*
X144040000Y-132610000D02*
X146740000Y-132610000D01*
X144040000Y-132650000D02*
X146757000Y-132650000D01*
X144040000Y-132690000D02*
X146773000Y-132690000D01*
X144040000Y-132730000D02*
X146789000Y-132730000D01*
X144040000Y-132770000D02*
X146805000Y-132770000D01*
X144040000Y-132810000D02*
X146820000Y-132810000D01*
X144040000Y-132850000D02*
X146835000Y-132850000D01*
X144040000Y-132890000D02*
X146849000Y-132890000D01*
X144040000Y-132930000D02*
X146863000Y-132930000D01*
X144040000Y-132970000D02*
X146876000Y-132970000D01*
X144040000Y-133010000D02*
X146889000Y-133010000D01*
X144040000Y-133050000D02*
X146901000Y-133050000D01*
X144040000Y-133090000D02*
X146913000Y-133090000D01*
X144040000Y-133130000D02*
X146925000Y-133130000D01*
X144040000Y-133170000D02*
X146936000Y-133170000D01*
X144040000Y-133210000D02*
X146947000Y-133210000D01*
X144040000Y-133250000D02*
X146957000Y-133250000D01*
X144040000Y-133290000D02*
X146967000Y-133290000D01*
X144040000Y-133330000D02*
X146976000Y-133330000D01*
X144040000Y-133370000D02*
X146985000Y-133370000D01*
X144040000Y-133410000D02*
X146993000Y-133410000D01*
X144040000Y-133450000D02*
X147002000Y-133450000D01*
X144040000Y-133490000D02*
X147009000Y-133490000D01*
X144040000Y-133530000D02*
X147017000Y-133530000D01*
X147120000Y-134250000D02*
G75*
G02*
X138880000Y-134250000I-4120000J0D01*
G01*
X138880000Y-134250000D02*
G75*
G02*
X147120000Y-134250000I4120000J0D01*
G01*
%TO.C,J13*%
X201145000Y-97330000D02*
X209385000Y-97330000D01*
X201145000Y-99690000D02*
X201145000Y-97330000D01*
X201145000Y-107730000D02*
X201145000Y-100290000D01*
X203265000Y-97330000D02*
X203265000Y-107730000D01*
X207265000Y-97330000D02*
X207265000Y-107730000D01*
X209385000Y-97330000D02*
X209385000Y-107730000D01*
X209385000Y-107730000D02*
X201145000Y-107730000D01*
X201145000Y-99990000D02*
X200535000Y-100430000D01*
X200535000Y-99550000D01*
X201145000Y-99990000D01*
G36*
X201145000Y-99990000D02*
G01*
X200535000Y-100430000D01*
X200535000Y-99550000D01*
X201145000Y-99990000D01*
G37*
%TO.C,J8*%
X116180000Y-72880000D02*
X136740000Y-72880000D01*
X116180000Y-75000000D02*
X136740000Y-75000000D01*
X116180000Y-79000000D02*
X136740000Y-79000000D01*
X116180000Y-81120000D02*
X116180000Y-72880000D01*
X118540000Y-81120000D02*
X116180000Y-81120000D01*
X136740000Y-72880000D02*
X136740000Y-81120000D01*
X136740000Y-81120000D02*
X119140000Y-81120000D01*
X119280000Y-81730000D02*
X118400000Y-81730000D01*
X118840000Y-81120000D01*
X119280000Y-81730000D01*
G36*
X119280000Y-81730000D02*
G01*
X118400000Y-81730000D01*
X118840000Y-81120000D01*
X119280000Y-81730000D01*
G37*
%TO.C,R1*%
X191990000Y-73880000D02*
X191990000Y-74650000D01*
X191990000Y-81960000D02*
X191990000Y-81190000D01*
X193360000Y-74650000D02*
X190620000Y-74650000D01*
X190620000Y-81190000D01*
X193360000Y-81190000D01*
X193360000Y-74650000D01*
%TO.C,J3*%
X142020000Y-60667500D02*
X162580000Y-60667500D01*
X142020000Y-62787500D02*
X162580000Y-62787500D01*
X142020000Y-66787500D02*
X162580000Y-66787500D01*
X142020000Y-68907500D02*
X142020000Y-60667500D01*
X144380000Y-68907500D02*
X142020000Y-68907500D01*
X162580000Y-60667500D02*
X162580000Y-68907500D01*
X162580000Y-68907500D02*
X144980000Y-68907500D01*
X145120000Y-69517500D02*
X144240000Y-69517500D01*
X144680000Y-68907500D01*
X145120000Y-69517500D01*
G36*
X145120000Y-69517500D02*
G01*
X144240000Y-69517500D01*
X144680000Y-68907500D01*
X145120000Y-69517500D01*
G37*
%TO.C,U2*%
X87670000Y-68270000D02*
X87670000Y-81030000D01*
X87670000Y-68270000D02*
X90330000Y-68270000D01*
X87670000Y-81030000D02*
X90330000Y-81030000D01*
X89000000Y-65670000D02*
X90330000Y-65670000D01*
X90330000Y-65670000D02*
X90330000Y-67000000D01*
X90330000Y-68270000D02*
X90330000Y-81030000D01*
D12*
X87730000Y-60650000D02*
X110590000Y-60650000D01*
X110590000Y-86050000D01*
X87730000Y-86050000D01*
X87730000Y-60650000D01*
D13*
%TO.C,C4*%
X185195225Y-111525000D02*
X185695225Y-111525000D01*
X185445225Y-111275000D02*
X185445225Y-111775000D01*
X188000000Y-110420000D02*
X188000000Y-111960000D01*
X188000000Y-114040000D02*
X188000000Y-115580000D01*
X188040000Y-110420000D02*
X188040000Y-111960000D01*
X188040000Y-114040000D02*
X188040000Y-115580000D01*
X188080000Y-110421000D02*
X188080000Y-111960000D01*
X188080000Y-114040000D02*
X188080000Y-115579000D01*
X188120000Y-110423000D02*
X188120000Y-111960000D01*
X188120000Y-114040000D02*
X188120000Y-115577000D01*
X188160000Y-110425000D02*
X188160000Y-111960000D01*
X188160000Y-114040000D02*
X188160000Y-115575000D01*
X188200000Y-110428000D02*
X188200000Y-111960000D01*
X188200000Y-114040000D02*
X188200000Y-115572000D01*
X188240000Y-110431000D02*
X188240000Y-111960000D01*
X188240000Y-114040000D02*
X188240000Y-115569000D01*
X188280000Y-110435000D02*
X188280000Y-111960000D01*
X188280000Y-114040000D02*
X188280000Y-115565000D01*
X188320000Y-110440000D02*
X188320000Y-111960000D01*
X188320000Y-114040000D02*
X188320000Y-115560000D01*
X188360000Y-110445000D02*
X188360000Y-111960000D01*
X188360000Y-114040000D02*
X188360000Y-115555000D01*
X188400000Y-110451000D02*
X188400000Y-111960000D01*
X188400000Y-114040000D02*
X188400000Y-115549000D01*
X188440000Y-110457000D02*
X188440000Y-111960000D01*
X188440000Y-114040000D02*
X188440000Y-115543000D01*
X188480000Y-110464000D02*
X188480000Y-111960000D01*
X188480000Y-114040000D02*
X188480000Y-115536000D01*
X188520000Y-110472000D02*
X188520000Y-111960000D01*
X188520000Y-114040000D02*
X188520000Y-115528000D01*
X188560000Y-110481000D02*
X188560000Y-111960000D01*
X188560000Y-114040000D02*
X188560000Y-115519000D01*
X188600000Y-110490000D02*
X188600000Y-111960000D01*
X188600000Y-114040000D02*
X188600000Y-115510000D01*
X188640000Y-110499000D02*
X188640000Y-111960000D01*
X188640000Y-114040000D02*
X188640000Y-115501000D01*
X188680000Y-110510000D02*
X188680000Y-111960000D01*
X188680000Y-114040000D02*
X188680000Y-115490000D01*
X188720000Y-110521000D02*
X188720000Y-111960000D01*
X188720000Y-114040000D02*
X188720000Y-115479000D01*
X188760000Y-110533000D02*
X188760000Y-111960000D01*
X188760000Y-114040000D02*
X188760000Y-115467000D01*
X188800000Y-110545000D02*
X188800000Y-111960000D01*
X188800000Y-114040000D02*
X188800000Y-115455000D01*
X188840000Y-110558000D02*
X188840000Y-111960000D01*
X188840000Y-114040000D02*
X188840000Y-115442000D01*
X188880000Y-110572000D02*
X188880000Y-111960000D01*
X188880000Y-114040000D02*
X188880000Y-115428000D01*
X188920000Y-110587000D02*
X188920000Y-111960000D01*
X188920000Y-114040000D02*
X188920000Y-115413000D01*
X188960000Y-110602000D02*
X188960000Y-111960000D01*
X188960000Y-114040000D02*
X188960000Y-115398000D01*
X189000000Y-110618000D02*
X189000000Y-111960000D01*
X189000000Y-114040000D02*
X189000000Y-115382000D01*
X189040000Y-110635000D02*
X189040000Y-111960000D01*
X189040000Y-114040000D02*
X189040000Y-115365000D01*
X189080000Y-110653000D02*
X189080000Y-111960000D01*
X189080000Y-114040000D02*
X189080000Y-115347000D01*
X189120000Y-110671000D02*
X189120000Y-111960000D01*
X189120000Y-114040000D02*
X189120000Y-115329000D01*
X189160000Y-110691000D02*
X189160000Y-111960000D01*
X189160000Y-114040000D02*
X189160000Y-115309000D01*
X189200000Y-110711000D02*
X189200000Y-111960000D01*
X189200000Y-114040000D02*
X189200000Y-115289000D01*
X189240000Y-110732000D02*
X189240000Y-111960000D01*
X189240000Y-114040000D02*
X189240000Y-115268000D01*
X189280000Y-110754000D02*
X189280000Y-111960000D01*
X189280000Y-114040000D02*
X189280000Y-115246000D01*
X189320000Y-110777000D02*
X189320000Y-111960000D01*
X189320000Y-114040000D02*
X189320000Y-115223000D01*
X189360000Y-110801000D02*
X189360000Y-111960000D01*
X189360000Y-114040000D02*
X189360000Y-115199000D01*
X189400000Y-110825000D02*
X189400000Y-111960000D01*
X189400000Y-114040000D02*
X189400000Y-115175000D01*
X189440000Y-110851000D02*
X189440000Y-111960000D01*
X189440000Y-114040000D02*
X189440000Y-115149000D01*
X189480000Y-110878000D02*
X189480000Y-111960000D01*
X189480000Y-114040000D02*
X189480000Y-115122000D01*
X189520000Y-110906000D02*
X189520000Y-111960000D01*
X189520000Y-114040000D02*
X189520000Y-115094000D01*
X189560000Y-110935000D02*
X189560000Y-111960000D01*
X189560000Y-114040000D02*
X189560000Y-115065000D01*
X189600000Y-110965000D02*
X189600000Y-111960000D01*
X189600000Y-114040000D02*
X189600000Y-115035000D01*
X189640000Y-110997000D02*
X189640000Y-111960000D01*
X189640000Y-114040000D02*
X189640000Y-115003000D01*
X189680000Y-111030000D02*
X189680000Y-111960000D01*
X189680000Y-114040000D02*
X189680000Y-114970000D01*
X189720000Y-111064000D02*
X189720000Y-111960000D01*
X189720000Y-114040000D02*
X189720000Y-114936000D01*
X189760000Y-111099000D02*
X189760000Y-111960000D01*
X189760000Y-114040000D02*
X189760000Y-114901000D01*
X189800000Y-111136000D02*
X189800000Y-111960000D01*
X189800000Y-114040000D02*
X189800000Y-114864000D01*
X189840000Y-111175000D02*
X189840000Y-111960000D01*
X189840000Y-114040000D02*
X189840000Y-114825000D01*
X189880000Y-111215000D02*
X189880000Y-111960000D01*
X189880000Y-114040000D02*
X189880000Y-114785000D01*
X189920000Y-111257000D02*
X189920000Y-111960000D01*
X189920000Y-114040000D02*
X189920000Y-114743000D01*
X189960000Y-111301000D02*
X189960000Y-111960000D01*
X189960000Y-114040000D02*
X189960000Y-114699000D01*
X190000000Y-111348000D02*
X190000000Y-111960000D01*
X190000000Y-114040000D02*
X190000000Y-114652000D01*
X190040000Y-111396000D02*
X190040000Y-114604000D01*
X190080000Y-111447000D02*
X190080000Y-114553000D01*
X190120000Y-111501000D02*
X190120000Y-114499000D01*
X190160000Y-111557000D02*
X190160000Y-114443000D01*
X190200000Y-111617000D02*
X190200000Y-114383000D01*
X190240000Y-111681000D02*
X190240000Y-114319000D01*
X190280000Y-111749000D02*
X190280000Y-114251000D01*
X190320000Y-111823000D02*
X190320000Y-114177000D01*
X190360000Y-111902000D02*
X190360000Y-114098000D01*
X190400000Y-111989000D02*
X190400000Y-114011000D01*
X190440000Y-112086000D02*
X190440000Y-113914000D01*
X190480000Y-112195000D02*
X190480000Y-113805000D01*
X190520000Y-112323000D02*
X190520000Y-113677000D01*
X190560000Y-112483000D02*
X190560000Y-113517000D01*
X190600000Y-112717000D02*
X190600000Y-113283000D01*
X190620000Y-113000000D02*
G75*
G02*
X185380000Y-113000000I-2620000J0D01*
G01*
X185380000Y-113000000D02*
G75*
G02*
X190620000Y-113000000I2620000J0D01*
G01*
%TO.C,R3*%
X186300000Y-73960000D02*
X186300000Y-74730000D01*
X186300000Y-82040000D02*
X186300000Y-81270000D01*
X187670000Y-74730000D02*
X184930000Y-74730000D01*
X184930000Y-81270000D01*
X187670000Y-81270000D01*
X187670000Y-74730000D01*
%TO.C,R7*%
X193960000Y-120000000D02*
X194730000Y-120000000D01*
X202040000Y-120000000D02*
X201270000Y-120000000D01*
X194730000Y-118630000D02*
X201270000Y-118630000D01*
X201270000Y-121370000D01*
X194730000Y-121370000D01*
X194730000Y-118630000D01*
%TO.C,R6*%
X176960000Y-120000000D02*
X177730000Y-120000000D01*
X185040000Y-120000000D02*
X184270000Y-120000000D01*
X177730000Y-118630000D02*
X184270000Y-118630000D01*
X184270000Y-121370000D01*
X177730000Y-121370000D01*
X177730000Y-118630000D01*
%TO.C,J9*%
X140012500Y-97795000D02*
X148252500Y-97795000D01*
X140012500Y-100155000D02*
X140012500Y-97795000D01*
X140012500Y-108195000D02*
X140012500Y-100755000D01*
X142132500Y-97795000D02*
X142132500Y-108195000D01*
X146132500Y-97795000D02*
X146132500Y-108195000D01*
X148252500Y-97795000D02*
X148252500Y-108195000D01*
X148252500Y-108195000D02*
X140012500Y-108195000D01*
X140012500Y-100455000D02*
X139402500Y-100895000D01*
X139402500Y-100015000D01*
X140012500Y-100455000D01*
G36*
X140012500Y-100455000D02*
G01*
X139402500Y-100895000D01*
X139402500Y-100015000D01*
X140012500Y-100455000D01*
G37*
%TO.C,J7*%
X116100000Y-60880000D02*
X136660000Y-60880000D01*
X116100000Y-63000000D02*
X136660000Y-63000000D01*
X116100000Y-67000000D02*
X136660000Y-67000000D01*
X116100000Y-69120000D02*
X116100000Y-60880000D01*
X118460000Y-69120000D02*
X116100000Y-69120000D01*
X136660000Y-60880000D02*
X136660000Y-69120000D01*
X136660000Y-69120000D02*
X119060000Y-69120000D01*
X119200000Y-69730000D02*
X118320000Y-69730000D01*
X118760000Y-69120000D01*
X119200000Y-69730000D01*
G36*
X119200000Y-69730000D02*
G01*
X118320000Y-69730000D01*
X118760000Y-69120000D01*
X119200000Y-69730000D01*
G37*
%TO.C,J11*%
X200795000Y-60747500D02*
X211195000Y-60747500D01*
X200795000Y-62867500D02*
X211195000Y-62867500D01*
X200795000Y-66867500D02*
X211195000Y-66867500D01*
X200795000Y-68987500D02*
X200795000Y-60747500D01*
X203155000Y-68987500D02*
X200795000Y-68987500D01*
X211195000Y-60747500D02*
X211195000Y-68987500D01*
X211195000Y-68987500D02*
X203755000Y-68987500D01*
X203895000Y-69597500D02*
X203015000Y-69597500D01*
X203455000Y-68987500D01*
X203895000Y-69597500D01*
G36*
X203895000Y-69597500D02*
G01*
X203015000Y-69597500D01*
X203455000Y-68987500D01*
X203895000Y-69597500D01*
G37*
%TO.C,R2*%
X198300000Y-73880000D02*
X198300000Y-74650000D01*
X198300000Y-81960000D02*
X198300000Y-81190000D01*
X196930000Y-81190000D02*
X199670000Y-81190000D01*
X199670000Y-74650000D01*
X196930000Y-74650000D01*
X196930000Y-81190000D01*
%TO.C,C1*%
X141630000Y-143380000D02*
X141967000Y-143380000D01*
X141630000Y-148620000D02*
X141630000Y-143380000D01*
X141967000Y-148620000D02*
X141630000Y-148620000D01*
X144033000Y-143380000D02*
X144370000Y-143380000D01*
X144370000Y-143380000D02*
X144370000Y-148620000D01*
X144370000Y-148620000D02*
X144033000Y-148620000D01*
%TO.C,U4*%
X156455000Y-97810000D02*
X157835000Y-97810000D01*
X156455000Y-99190000D02*
X156455000Y-97810000D01*
X156455000Y-100460000D02*
X156455000Y-108190000D01*
X156455000Y-100460000D02*
X159105000Y-100460000D01*
X156455000Y-108190000D02*
X161755000Y-108190000D01*
X159105000Y-97810000D02*
X161755000Y-97810000D01*
X159105000Y-100460000D02*
X159105000Y-97810000D01*
X161755000Y-97810000D02*
X161755000Y-108190000D01*
D12*
X156311000Y-93856000D02*
X179679000Y-93856000D01*
X179679000Y-112144000D01*
X156311000Y-112144000D01*
X156311000Y-93856000D01*
D13*
%TO.C,J6*%
X179180000Y-131880000D02*
X196780000Y-131880000D01*
X179180000Y-140120000D02*
X179180000Y-131880000D01*
X197380000Y-131880000D02*
X199740000Y-131880000D01*
X199740000Y-131880000D02*
X199740000Y-140120000D01*
X199740000Y-134000000D02*
X179180000Y-134000000D01*
X199740000Y-138000000D02*
X179180000Y-138000000D01*
X199740000Y-140120000D02*
X179180000Y-140120000D01*
X197080000Y-131880000D02*
X196640000Y-131270000D01*
X197520000Y-131270000D01*
X197080000Y-131880000D01*
G36*
X197080000Y-131880000D02*
G01*
X196640000Y-131270000D01*
X197520000Y-131270000D01*
X197080000Y-131880000D01*
G37*
%TO.C,PS1*%
D12*
X92344000Y-129586000D02*
X135270000Y-129586000D01*
X135270000Y-150414000D01*
X92344000Y-150414000D01*
X92344000Y-129586000D01*
X92344000Y-130348000D02*
X92344000Y-129586000D01*
X93106000Y-129586000D01*
X92344000Y-130348000D01*
G36*
X92344000Y-130348000D02*
G01*
X92344000Y-129586000D01*
X93106000Y-129586000D01*
X92344000Y-130348000D01*
G37*
D13*
%TO.C,C3*%
X151630000Y-94880000D02*
X151967000Y-94880000D01*
X151630000Y-100120000D02*
X151630000Y-94880000D01*
X151967000Y-100120000D02*
X151630000Y-100120000D01*
X154033000Y-94880000D02*
X154370000Y-94880000D01*
X154370000Y-94880000D02*
X154370000Y-100120000D01*
X154370000Y-100120000D02*
X154033000Y-100120000D01*
%TO.C,R4*%
X157060000Y-73960000D02*
X157060000Y-74730000D01*
X157060000Y-82040000D02*
X157060000Y-81270000D01*
X155690000Y-81270000D02*
X158430000Y-81270000D01*
X158430000Y-74730000D01*
X155690000Y-74730000D01*
X155690000Y-81270000D01*
%TO.C,J1*%
X81011000Y-133110000D02*
X89251000Y-133110000D01*
X81011000Y-135470000D02*
X81011000Y-133110000D01*
X81011000Y-143510000D02*
X81011000Y-136070000D01*
X83131000Y-133110000D02*
X83131000Y-143510000D01*
X87131000Y-133110000D02*
X87131000Y-143510000D01*
X89251000Y-133110000D02*
X89251000Y-143510000D01*
X89251000Y-143510000D02*
X81011000Y-143510000D01*
X81011000Y-135770000D02*
X80401000Y-136210000D01*
X80401000Y-135330000D01*
X81011000Y-135770000D01*
G36*
X81011000Y-135770000D02*
G01*
X80401000Y-136210000D01*
X80401000Y-135330000D01*
X81011000Y-135770000D01*
G37*
%TO.C,Q2*%
X147040000Y-72270000D02*
X151660000Y-72270000D01*
X147040000Y-75530000D02*
X148420000Y-75530000D01*
X147040000Y-79230000D02*
X148420000Y-79230000D01*
X147040000Y-82490000D02*
X147040000Y-72270000D01*
X148420000Y-82490000D02*
X148420000Y-72270000D01*
X151660000Y-72270000D02*
X151660000Y-82490000D01*
X151660000Y-82490000D02*
X147040000Y-82490000D01*
%TO.C,U1*%
X83040000Y-100000000D02*
X83860000Y-100000000D01*
X83040000Y-108220000D02*
X83040000Y-100000000D01*
X83040000Y-108220000D02*
X83860000Y-108220000D01*
X83860000Y-100000000D02*
X83860000Y-100210000D01*
X83860000Y-100210000D02*
X85256000Y-100210000D01*
X83860000Y-108010000D02*
X85256000Y-108010000D01*
X83860000Y-108220000D02*
X83860000Y-108010000D01*
X84340000Y-94110000D02*
X84340000Y-96600000D01*
X84340000Y-96600000D02*
X85253520Y-96600000D01*
X84340000Y-97947939D02*
X84340000Y-96600000D01*
X84340000Y-99875000D02*
X84340000Y-98872061D01*
X84340000Y-108345000D02*
X84340000Y-99875000D01*
X84340000Y-109347939D02*
X84340000Y-108345000D01*
X84340000Y-111620000D02*
X84340000Y-110272060D01*
X84340000Y-111620000D02*
X85253520Y-111620000D01*
X84340000Y-114110000D02*
X84340000Y-111620000D01*
X84403000Y-114380000D02*
X135497000Y-114380000D01*
X84950000Y-93500000D02*
X134950000Y-93500000D01*
X84950000Y-114720000D02*
X134950000Y-114720000D01*
X86620000Y-115040000D02*
X85020000Y-115040000D01*
X87644000Y-100210000D02*
X88860000Y-100210000D01*
X87644000Y-108010000D02*
X88860000Y-108010000D01*
X87646480Y-96600000D02*
X132253520Y-96600000D01*
X87646480Y-111620000D02*
X132253520Y-111620000D01*
X88860000Y-100210000D02*
X88860000Y-108010000D01*
X134646480Y-96600000D02*
X135560000Y-96600000D01*
X134646480Y-111620000D02*
X135560000Y-111620000D01*
X135497000Y-93840000D02*
X84403000Y-93840000D01*
X135560000Y-97947939D02*
X135560000Y-94110000D01*
X135560000Y-98872061D02*
X135560000Y-100510000D01*
X135560000Y-100510000D02*
X135560000Y-107710000D01*
X135560000Y-107710000D02*
X135560000Y-109347939D01*
X135560000Y-114110000D02*
X135560000Y-110272061D01*
X84340000Y-94110000D02*
G75*
G02*
X84950000Y-93500000I610000J0D01*
G01*
X84950000Y-114720000D02*
G75*
G02*
X84340000Y-114110000I0J610000D01*
G01*
X134950000Y-93500000D02*
G75*
G02*
X135560000Y-94110000I0J-610000D01*
G01*
X135560000Y-114110000D02*
G75*
G02*
X134950000Y-114720000I-609901J-99D01*
G01*
%TO.C,Q1*%
X177040000Y-72110000D02*
X181660000Y-72110000D01*
X177040000Y-75370000D02*
X178420000Y-75370000D01*
X177040000Y-79070000D02*
X178420000Y-79070000D01*
X177040000Y-82330000D02*
X177040000Y-72110000D01*
X178420000Y-82330000D02*
X178420000Y-72110000D01*
X181660000Y-72110000D02*
X181660000Y-82330000D01*
X181660000Y-82330000D02*
X177040000Y-82330000D01*
%TO.C,U3*%
X151510000Y-132920000D02*
X151510000Y-145680000D01*
X151510000Y-132920000D02*
X154170000Y-132920000D01*
X151510000Y-145680000D02*
X154170000Y-145680000D01*
X152840000Y-130320000D02*
X154170000Y-130320000D01*
X154170000Y-130320000D02*
X154170000Y-131650000D01*
X154170000Y-132920000D02*
X154170000Y-145680000D01*
D12*
X151570000Y-125300000D02*
X174430000Y-125300000D01*
X174430000Y-150700000D01*
X151570000Y-150700000D01*
X151570000Y-125300000D01*
%TD*%
M02*
